<svg version="1.1" id="Layer_1" xmlns="http://www.w3.org/2000/svg" xmlns:xlink="http://www.w3.org/1999/xlink" x="0px" y="0px"
	 width="100%" viewBox="0 0 514 487" enable-background="new 0 0 514 487" xml:space="preserve">
<path fill="#FFFFFE" opacity="1.000000" stroke="none" 
	d="
M1.000006,423.000000 
	C1.000000,304.310699 1.000000,185.621384 1.333482,66.761871 
	C2.402318,65.198395 3.407324,63.882626 3.833251,62.400448 
	C12.540418,32.100346 31.970877,12.580319 62.297901,3.855185 
	C63.690483,3.454538 64.773048,1.976334 66.000000,1.000001 
	C193.689316,1.000000 321.378632,1.000000 449.238098,1.333476 
	C450.801575,2.402303 452.117340,3.407289 453.599548,3.833225 
	C483.899597,12.540428 503.419708,31.970823 512.144836,62.297882 
	C512.545471,63.690460 514.023682,64.773041 515.000000,66.000000 
	C515.000000,184.689316 515.000000,303.378632 514.666504,422.238098 
	C513.597717,423.801575 512.592773,425.117371 512.166809,426.599579 
	C503.459564,456.899628 484.029144,476.419739 453.702087,485.144836 
	C452.309479,485.545471 451.226959,487.023682 450.000000,488.000000 
	C322.310699,488.000000 194.621384,488.000000 66.761871,487.666504 
	C65.198402,486.597656 63.882618,485.592682 62.400433,485.166718 
	C32.100281,476.459595 12.580313,457.029083 3.855159,426.702057 
	C3.454515,425.309479 1.976334,424.226929 1.000006,423.000000 
M8.002496,278.500000 
	C8.002614,319.997070 7.918722,361.494354 8.025710,402.991150 
	C8.140131,447.370697 41.469025,480.917480 85.759605,480.960022 
	C200.586487,481.070312 315.413605,481.070343 430.240509,480.960022 
	C474.531189,480.917480 507.928925,447.371643 507.967560,402.991089 
	C508.059570,297.330353 508.059662,191.669388 507.967560,86.008629 
	C507.928894,41.625622 474.540070,8.084575 430.239471,8.040936 
	C315.412567,7.927824 200.585312,7.913624 85.758949,8.181829 
	C77.082443,8.202096 68.017792,9.594302 59.808220,12.355012 
	C27.879786,23.091894 8.066791,51.678009 8.025062,86.010597 
	C7.947483,149.840317 8.002613,213.670181 8.002496,278.500000 
z"/>
<path fill="#000000" opacity="1.000000" stroke="none" 
	d="
M1.000006,423.468658 
	C1.976334,424.226929 3.454515,425.309479 3.855159,426.702057 
	C12.580313,457.029083 32.100281,476.459595 62.400433,485.166718 
	C63.882618,485.592682 65.198402,486.597656 66.295837,487.666504 
	C44.406498,488.000000 22.812996,488.000000 1.000000,488.000000 
	C1.000000,466.646271 1.000000,445.291809 1.000006,423.468658 
z"/>
<path fill="#000000" opacity="1.000000" stroke="none" 
	d="
M65.531342,1.000001 
	C64.773048,1.976334 63.690483,3.454538 62.297901,3.855185 
	C31.970877,12.580319 12.540418,32.100346 3.833251,62.400448 
	C3.407324,63.882626 2.402318,65.198395 1.333482,66.295830 
	C1.000000,44.406502 1.000000,22.813002 1.000000,1.000000 
	C22.353727,1.000000 43.708206,1.000000 65.531342,1.000001 
z"/>
<path fill="#000000" opacity="1.000000" stroke="none" 
	d="
M450.468689,488.000000 
	C451.226959,487.023682 452.309479,485.545471 453.702087,485.144836 
	C484.029144,476.419739 503.459564,456.899628 512.166809,426.599579 
	C512.592773,425.117371 513.597717,423.801575 514.666504,422.704163 
	C515.000000,444.593506 515.000000,466.186981 515.000000,488.000000 
	C493.646271,488.000000 472.291809,488.000000 450.468689,488.000000 
z"/>
<path fill="#000000" opacity="1.000000" stroke="none" 
	d="
M515.000000,65.531342 
	C514.023682,64.773041 512.545471,63.690460 512.144836,62.297882 
	C503.419708,31.970823 483.899597,12.540428 453.599548,3.833225 
	C452.117340,3.407289 450.801575,2.402303 449.704163,1.333476 
	C471.593506,1.000000 493.187012,1.000000 515.000000,1.000000 
	C515.000000,22.353727 515.000000,43.708206 515.000000,65.531342 
z"/>
<path fill="#CC9B00" opacity="1.000000" stroke="none" 
	d="
M8.002496,278.000000 
	C8.002613,213.670181 7.947483,149.840317 8.025062,86.010597 
	C8.066791,51.678009 27.879786,23.091894 59.808220,12.355012 
	C68.017792,9.594302 77.082443,8.202096 85.758949,8.181829 
	C200.585312,7.913624 315.412567,7.927824 430.239471,8.040936 
	C474.540070,8.084575 507.928894,41.625622 507.967560,86.008629 
	C508.059662,191.669388 508.059570,297.330353 507.967560,402.991089 
	C507.928925,447.371643 474.531189,480.917480 430.240509,480.960022 
	C315.413605,481.070343 200.586487,481.070312 85.759605,480.960022 
	C41.469025,480.917480 8.140131,447.370697 8.025710,402.991150 
	C7.918722,361.494354 8.002614,319.997070 8.002496,278.000000 
M319.631714,415.972534 
	C319.771362,415.667206 319.911041,415.361877 320.761475,415.066284 
	C321.872345,416.173187 323.030731,417.236877 324.084869,418.395386 
	C326.905792,421.495575 329.473755,421.948578 332.007446,417.610321 
	C326.534302,415.596771 325.532959,411.379639 326.017700,406.330048 
	C326.286896,403.525818 326.225342,400.691528 326.400818,397.876282 
	C326.987549,388.462128 325.053528,386.578827 315.759033,387.918457 
	C314.041962,388.165955 312.423584,389.098389 310.077911,389.847717 
	C307.348877,391.781738 304.438171,393.617981 305.385498,397.531158 
	C305.952698,397.833740 306.519897,398.136292 307.087128,398.438873 
	C308.475250,395.713348 309.863403,392.987854 312.082825,390.231476 
	C315.462799,390.031921 319.743988,388.927155 321.017670,392.993713 
	C321.879852,395.746399 320.428101,399.223816 319.359161,402.450378 
	C318.159149,402.869415 316.959137,403.288452 315.008972,403.756042 
	C313.453339,404.281616 311.793915,404.610931 310.361145,405.368805 
	C305.655579,407.858002 303.096954,414.152161 305.146637,417.837708 
	C307.051422,421.262695 312.453369,421.325867 317.510498,417.918091 
	C318.156464,417.482819 318.594391,416.738800 319.631714,415.972534 
M144.631714,415.972565 
	C144.771378,415.667206 144.911057,415.361877 145.761475,415.066284 
	C146.872116,416.173004 148.030334,417.236481 149.084213,418.394867 
	C151.903885,421.494171 154.471878,421.948608 157.009964,417.608368 
	C151.243256,415.498383 150.505463,411.009033 151.076370,405.839844 
	C151.349213,403.369598 151.340790,400.869415 151.571442,398.393188 
	C152.525482,388.151184 150.134811,386.653259 139.276428,388.113007 
	C138.054459,388.277252 136.929535,389.163391 135.077850,389.847717 
	C132.348801,391.781738 129.438278,393.618073 130.385376,397.531158 
	C130.952621,397.833710 131.519867,398.136292 132.087128,398.438873 
	C133.475235,395.713379 134.863358,392.987915 137.082703,390.231506 
	C140.462708,390.031921 144.743942,388.927032 146.017670,392.993652 
	C146.879852,395.746338 145.428116,399.223785 144.359161,402.450378 
	C143.159119,402.869446 141.959076,403.288483 140.008896,403.756042 
	C138.453278,404.281647 136.793823,404.610962 135.361069,405.368835 
	C130.655548,407.857971 128.096939,414.152191 130.146652,417.837708 
	C132.051422,421.262665 137.453369,421.325775 142.510498,417.918060 
	C143.156464,417.482819 143.594406,416.738831 144.631714,415.972565 
M168.502197,418.093903 
	C166.293274,414.953430 164.084335,411.812958 161.914627,408.728271 
	C160.089371,416.034973 161.658661,418.514801 169.794662,420.046753 
	C171.935150,420.129425 174.106659,420.482391 176.209946,420.240997 
	C181.240753,419.663544 184.385025,416.600281 184.804474,412.085510 
	C185.253845,407.248322 182.878418,404.177155 178.464478,402.545532 
	C176.284729,401.739746 174.074234,401.014526 171.864487,400.293182 
	C168.636276,399.239288 165.682007,397.504120 166.338974,393.728699 
	C167.053741,389.621185 170.808868,389.267395 174.225769,389.242798 
	C177.204025,389.221344 179.798630,389.945129 180.621323,393.473511 
	C180.867935,394.531189 181.808640,395.427032 182.817612,396.998688 
	C183.404297,389.445557 179.872604,386.461761 172.294022,387.259735 
	C167.688217,387.744690 163.791580,389.384552 162.817123,394.543091 
	C161.854385,399.639587 164.689590,402.778687 168.866119,404.809937 
	C171.686935,406.181885 174.951736,406.713684 177.625259,408.288086 
	C179.190796,409.210022 180.926880,411.478119 180.864319,413.073120 
	C180.800568,414.698181 178.919449,417.048859 177.308533,417.633209 
	C174.769485,418.554321 171.790909,418.263916 168.502197,418.093903 
M288.839264,419.269470 
	C289.378326,419.028473 289.917419,418.787476 291.114990,418.330139 
	C298.080444,415.368286 300.394714,404.286865 297.793030,396.381287 
	C295.453186,389.271362 291.308777,386.579102 283.000000,386.847656 
	C276.424927,387.060242 271.327301,389.813141 269.058197,396.118256 
	C266.517456,403.178162 266.781036,410.196411 271.958588,416.204803 
	C276.480225,421.452148 282.252289,421.201691 288.839264,419.269470 
M198.351105,75.294434 
	C182.390350,82.199409 166.352509,88.933205 150.498199,96.074501 
	C141.203430,100.261154 133.352112,106.166817 130.407898,117.491249 
	C129.608521,122.360008 128.130539,127.226494 128.114304,132.097870 
	C127.944534,183.013229 127.999367,233.929367 128.050797,284.845245 
	C128.052536,286.572937 128.673004,288.300018 129.010681,290.756897 
	C131.167923,293.088257 132.989929,295.929749 135.566513,297.623016 
	C138.856552,299.785065 142.735107,301.068024 146.395599,302.647339 
	C177.488632,316.062164 208.752411,329.098022 239.609512,343.034637 
	C252.220444,348.730377 263.654510,349.368622 276.220428,343.112549 
	C289.869659,336.317108 304.203644,330.902191 318.206665,324.810791 
	C334.803192,317.591187 351.524536,310.630798 367.894989,302.927368 
	C382.799957,295.913574 390.113892,283.714966 390.028839,267.076904 
	C389.913086,244.422165 390.000000,221.766388 390.000000,199.111053 
	C390.000000,171.624802 390.078888,144.137955 389.869659,116.653290 
	C389.850189,114.095818 388.004761,111.552246 386.996246,108.215797 
	C386.299103,107.097153 385.862030,105.394508 384.864502,104.950302 
	C375.024567,100.568420 365.087189,96.405823 355.185944,92.161110 
	C329.752136,81.257538 304.359009,70.257790 278.867218,59.491615 
	C272.069702,56.620762 264.975433,54.452614 257.523621,51.427834 
	C255.013702,51.953674 252.337173,52.086334 250.020493,53.068146 
	C232.974640,60.292191 216.000671,67.685913 198.351105,75.294434 
M113.458168,374.926361 
	C102.360840,368.539124 90.579956,372.607330 78.538925,371.228241 
	C81.376328,373.727020 84.694000,375.268433 84.745071,376.911377 
	C85.167015,390.483368 84.983749,404.074188 84.983749,417.592194 
	C82.952126,417.929016 81.306892,418.201813 79.661659,418.474579 
	C80.123810,419.612701 80.643234,419.964355 81.166183,419.969635 
	C88.643776,420.045654 96.125931,420.243408 103.598503,420.062195 
	C109.575615,419.917236 114.303780,416.937592 118.158089,412.487701 
	C124.985222,404.605682 126.276619,382.705994 113.458168,374.926361 
M214.851181,399.031097 
	C214.896393,401.192719 215.247299,403.401123 214.925262,405.506592 
	C214.177521,410.395264 217.979935,416.736206 210.088913,419.317688 
	C215.650085,419.317688 220.636246,419.317688 225.622391,419.317688 
	C225.608307,419.005096 225.594208,418.692474 225.580124,418.379883 
	C223.837158,418.139893 222.094177,417.899902 219.840851,417.589661 
	C219.840851,410.753418 219.899872,403.980225 219.826157,397.208496 
	C219.730469,388.417786 212.980362,384.367432 205.197647,388.414215 
	C203.334015,389.383301 201.595673,390.593323 199.531158,391.856903 
	C199.531158,383.045105 199.531158,374.701538 199.531158,366.089233 
	C195.763519,366.882965 192.205627,367.632507 188.647751,368.382050 
	C188.651581,368.709747 188.655411,369.037445 188.659241,369.365143 
	C190.323181,369.644867 191.987137,369.924622 194.036591,370.269196 
	C194.036591,386.005341 194.036591,401.730743 194.036591,417.431335 
	C192.398392,417.902740 190.865173,418.343933 189.331940,418.785126 
	C189.411682,419.022644 189.491409,419.260162 189.571152,419.497681 
	C194.938766,419.497681 200.306381,419.497681 205.673996,419.497681 
	C205.692169,419.214081 205.710342,418.930481 205.728516,418.646881 
	C203.897461,418.324005 202.066391,418.001160 199.166153,417.489777 
	C199.166153,410.325012 199.126831,403.209045 199.216797,396.094696 
	C199.227814,395.223877 199.796005,393.714203 200.336517,393.600952 
	C203.811691,392.872864 207.459900,391.733734 210.821899,392.243195 
	C212.415710,392.484680 213.503098,396.068115 214.851181,399.031097 
M379.775391,419.436523 
	C382.404602,417.985321 385.033783,416.534149 388.182739,414.796082 
	C388.182739,417.193207 388.182739,418.933563 388.182739,421.202209 
	C392.188812,419.393646 395.703186,417.807098 399.217560,416.220520 
	C399.087128,415.929382 398.956696,415.638275 398.826294,415.347137 
	C397.092255,415.624115 395.358215,415.901062 392.926147,416.289520 
	C392.926147,399.387665 392.926147,382.851776 392.926147,366.071320 
	C388.533234,366.956116 384.836243,367.700745 381.139252,368.445374 
	C381.143890,368.744080 381.148529,369.042755 381.153168,369.341431 
	C382.979584,369.644745 384.805969,369.948059 387.014099,370.314789 
	C387.014099,376.749786 387.014099,383.140076 387.014099,389.856232 
	C385.874237,389.389618 384.972473,389.034943 384.082062,388.653717 
	C373.179382,383.985596 363.790527,389.625977 362.852997,401.483826 
	C362.684631,403.613281 362.764984,405.792969 363.003540,407.918762 
	C364.096954,417.660339 369.409637,421.542023 379.775391,419.436523 
M238.969849,391.781921 
	C238.411148,390.280365 237.407593,388.789856 237.369919,387.275330 
	C237.196869,380.320496 237.293747,373.358978 237.293747,366.427765 
	C234.127792,367.042572 230.574326,367.732635 227.020844,368.422699 
	C227.018051,368.709412 227.015259,368.996124 227.012466,369.282837 
	C228.513702,369.633453 230.014923,369.984070 232.215088,370.497955 
	C232.215088,387.559937 232.215088,404.626862 232.215088,421.693787 
	C232.518204,421.718384 232.821304,421.742950 233.124420,421.767548 
	C233.841507,420.532806 234.558609,419.298035 235.294449,418.031006 
	C238.560684,418.882080 241.541718,419.916901 244.609756,420.405914 
	C251.534668,421.509674 258.264771,418.117981 260.911530,412.482117 
	C264.311157,405.243103 262.652100,394.500092 257.472534,390.213593 
	C252.595230,386.177277 247.098175,386.530182 238.969849,391.781921 
M340.438477,406.487549 
	C340.438477,410.238953 340.438477,413.990356 340.438477,417.551422 
	C338.093475,417.992310 336.552429,418.282043 335.011414,418.571808 
	C335.091797,418.855286 335.172211,419.138763 335.252625,419.422241 
	C341.439453,419.422241 347.626312,419.422241 353.813171,419.422241 
	C353.826172,419.021912 353.839203,418.621552 353.852203,418.221222 
	C351.345886,418.080688 348.839600,417.940155 345.561798,417.756378 
	C345.561798,411.181274 345.544678,404.896759 345.567230,398.612366 
	C345.585205,393.608887 349.319977,391.065948 354.134979,392.862122 
	C355.444000,393.350403 356.589996,394.275848 357.831696,395.013062 
	C359.962585,389.764862 359.001831,386.840607 355.082184,387.353027 
	C351.903168,387.768585 348.931519,389.770325 345.844788,391.078339 
	C345.709839,389.799255 345.562347,388.401520 345.382050,386.692688 
	C341.721008,387.047089 338.417847,387.366821 335.114685,387.686554 
	C340.380676,389.745087 340.391968,389.744995 340.433716,395.497437 
	C340.457886,398.829742 340.438690,402.162415 340.438477,406.487549 
z"/>
<path fill="#EA9400" opacity="1.000000" stroke="none" 
	d="
M129.005081,290.027374 
	C128.673004,288.300018 128.052536,286.572937 128.050797,284.845245 
	C127.999367,233.929367 127.944534,183.013229 128.114304,132.097870 
	C128.130539,127.226494 129.608521,122.360008 131.069092,117.248680 
	C137.958908,120.315094 144.154449,123.688408 150.426880,126.912178 
	C155.215591,129.373383 160.101654,131.645172 165.029724,134.463226 
	C165.127594,170.226013 165.177383,205.526886 165.124161,240.827576 
	C165.112228,248.741760 167.765488,255.417740 174.665726,259.342194 
	C178.259277,261.386017 182.828888,261.713623 186.972748,263.173279 
	C189.224045,268.416779 190.629318,273.961365 193.869141,278.053436 
	C200.643921,286.610352 208.270889,294.511414 215.824310,302.417755 
	C217.413040,304.080719 220.191071,304.607483 222.421082,305.657806 
	C222.874954,303.362701 223.620102,301.080780 223.724945,298.769836 
	C223.981476,293.115112 223.587387,287.413605 224.115982,281.793060 
	C224.714035,275.433899 226.033340,269.142639 227.496140,262.720459 
	C234.214401,262.619110 240.475525,262.619110 247.395340,262.619110 
	C247.395340,255.886917 247.395340,249.943146 247.717636,243.938660 
	C249.212875,242.548615 250.391006,241.223862 251.557861,239.889221 
	C256.270844,234.498657 260.096954,228.192764 267.024841,225.461548 
	C267.053894,233.615326 266.995514,241.307373 266.595123,249.037262 
	C264.558990,250.605850 262.324432,251.839752 261.285950,253.730591 
	C259.270691,257.399750 258.366150,261.703644 256.209534,265.264984 
	C252.398804,271.557953 251.982117,278.441467 252.098740,285.330627 
	C252.248093,294.152069 250.526840,303.110229 254.813354,311.698212 
	C257.571259,317.223633 258.034943,324.088562 261.436523,329.041656 
	C264.605804,333.656372 266.466919,337.617798 264.624298,343.019836 
	C260.385498,345.277771 256.485626,345.494904 252.361786,343.675232 
	C239.179413,337.858521 225.968506,332.105988 212.744629,326.384064 
	C193.749084,318.164764 174.722656,310.016815 155.729111,301.792908 
	C146.797455,297.925690 137.911652,293.952545 129.005081,290.027374 
z"/>
<path fill="#E89200" opacity="1.000000" stroke="none" 
	d="
M266.937378,224.999832 
	C260.096954,228.192764 256.270844,234.498657 251.557861,239.889221 
	C250.391006,241.223862 249.212875,242.548615 247.611603,243.524445 
	C245.766357,242.392334 244.400726,241.080276 242.922577,240.938126 
	C238.975510,240.558487 234.980103,240.681473 231.011902,240.249557 
	C233.380661,231.202057 239.157303,224.912033 245.925949,219.537048 
	C253.081909,213.854492 257.745178,205.280304 266.754822,201.761902 
	C269.181244,200.814362 271.468536,199.510468 273.746124,198.405823 
	C272.707336,191.184647 275.317627,185.043915 281.089447,180.252594 
	C282.595001,179.002808 283.837921,177.400955 285.055664,175.846542 
	C289.598999,170.047165 293.145538,163.195816 301.491577,161.027832 
	C307.221497,161.067535 312.485992,161.067535 317.839417,161.067535 
	C317.839417,157.967621 317.925079,155.345779 317.825745,152.730972 
	C317.085114,133.231857 302.151520,123.745811 287.885223,124.399117 
	C276.283203,124.930412 264.627380,124.286125 253.029999,123.785629 
	C254.059128,120.822990 255.563248,118.311218 255.947784,115.638367 
	C256.903473,108.995537 257.568359,102.290413 257.908813,95.587891 
	C258.086823,92.082901 257.334381,88.530655 257.002960,84.578850 
	C257.341614,73.425911 257.679504,62.693878 258.017395,51.961845 
	C264.975433,54.452614 272.069702,56.620762 278.867218,59.491615 
	C304.359009,70.257790 329.752136,81.257538 355.185944,92.161110 
	C365.087189,96.405823 375.024567,100.568420 384.864502,104.950302 
	C385.862030,105.394508 386.299103,107.097153 386.997498,109.077377 
	C386.982666,126.962517 386.966583,143.986069 386.575073,161.000824 
	C378.771881,158.149963 371.507751,154.709778 363.873901,152.620819 
	C354.817932,150.142700 345.487091,148.545486 336.191010,147.114563 
	C330.579254,146.250763 329.005585,148.173431 329.002472,154.012848 
	C328.998535,161.343323 329.003693,168.673798 329.004089,176.472443 
	C329.004669,185.294785 329.005981,193.648972 329.005249,202.471527 
	C328.997894,209.958328 328.992615,216.976761 328.526276,223.998322 
	C324.651154,223.988373 321.237091,223.975296 317.730682,223.503296 
	C317.638367,208.641968 317.638367,194.239578 317.638367,179.414001 
	C312.534790,179.414001 308.393616,179.618729 304.282379,179.355896 
	C300.246490,179.097870 299.256927,180.766251 299.325287,184.595703 
	C299.500244,194.393738 299.235107,204.199646 298.751160,214.006409 
	C294.036407,215.336945 289.716553,216.663483 285.305603,217.546906 
	C285.126892,215.503311 285.039307,213.902847 284.925812,211.828674 
	C283.010742,211.828674 281.386475,211.832840 279.762207,211.828003 
	C267.565491,211.791733 267.566589,211.791229 267.107605,224.021957 
	C267.095306,224.349579 266.996063,224.673950 266.937378,224.999832 
z"/>
<path fill="#EB9903" opacity="1.000000" stroke="none" 
	d="
M257.002197,84.999756 
	C257.334381,88.530655 258.086823,92.082901 257.908813,95.587891 
	C257.568359,102.290413 256.903473,108.995537 255.947784,115.638367 
	C255.563248,118.311218 254.059128,120.822990 252.612045,123.893555 
	C250.442352,124.306328 248.725174,124.233620 246.958603,123.798141 
	C239.741699,117.840752 230.947998,116.986900 222.531326,114.950233 
	C217.621521,113.762154 212.870956,111.926331 207.976456,110.661797 
	C202.603928,109.273773 197.166824,108.113541 191.721298,107.039406 
	C188.874100,106.477791 187.302582,108.054573 187.056320,110.838547 
	C186.663849,115.275612 186.382950,119.722549 185.677124,124.321045 
	C180.846008,124.507065 176.381577,124.746460 171.942291,124.511154 
	C167.120377,124.255600 164.764267,126.085556 165.138550,131.052094 
	C165.211853,132.024734 165.016098,133.017654 164.944427,134.001221 
	C160.101654,131.645172 155.215591,129.373383 150.426880,126.912178 
	C144.154449,123.688408 137.958908,120.315094 131.350494,116.996506 
	C133.352112,106.166817 141.203430,100.261154 150.498199,96.074501 
	C166.352509,88.933205 182.390350,82.199409 198.688034,75.548637 
	C200.690109,76.816986 202.240036,78.169678 204.041656,78.782822 
	C209.821304,80.749832 215.690323,82.455521 221.532867,84.235764 
	C223.584229,84.860817 225.626328,85.600700 227.728760,85.958214 
	C234.389465,87.090843 241.310608,87.325768 247.681030,89.334831 
	C252.964630,91.001129 255.715927,90.415878 257.002197,84.999756 
z"/>
<path fill="#C69601" opacity="1.000000" stroke="none" 
	d="
M386.950531,161.009613 
	C386.966583,143.986069 386.982666,126.962517 387.002930,109.470596 
	C388.004761,111.552246 389.850189,114.095818 389.869659,116.653290 
	C390.078888,144.137955 390.000000,171.624802 390.000000,199.111053 
	C390.000000,221.766388 389.913086,244.422165 390.028839,267.076904 
	C390.113892,283.714966 382.799957,295.913574 367.894989,302.927368 
	C351.524536,310.630798 334.803192,317.591187 318.206665,324.810791 
	C304.203644,330.902191 289.869659,336.317108 276.220428,343.112549 
	C263.654510,349.368622 252.220444,348.730377 239.609512,343.034637 
	C208.752411,329.098022 177.488632,316.062164 146.395599,302.647339 
	C142.735107,301.068024 138.856552,299.785065 135.566513,297.623016 
	C132.989929,295.929749 131.167923,293.088257 129.007874,290.392151 
	C137.911652,293.952545 146.797455,297.925690 155.729111,301.792908 
	C174.722656,310.016815 193.749084,318.164764 212.744629,326.384064 
	C225.968506,332.105988 239.179413,337.858521 252.361786,343.675232 
	C256.485626,345.494904 260.385498,345.277771 264.945374,342.889160 
	C268.097565,341.469971 270.549377,340.234406 273.366821,338.956299 
	C287.489105,332.944794 301.245789,326.975769 315.364990,320.964508 
	C332.485718,313.618103 349.243927,306.313934 366.352295,298.971802 
	C380.876801,292.050323 386.460480,279.916290 386.909790,264.990875 
	C387.240448,254.007858 386.934875,243.005707 386.939697,231.542801 
	C386.955353,219.385590 386.944122,207.697647 386.950867,195.540802 
	C386.962738,183.717789 386.956635,172.363708 386.950531,161.009613 
z"/>
<path fill="#EE9D00" opacity="1.000000" stroke="none" 
	d="
M257.002960,84.578850 
	C255.715927,90.415878 252.964630,91.001129 247.681030,89.334831 
	C241.310608,87.325768 234.389465,87.090843 227.728760,85.958214 
	C225.626328,85.600700 223.584229,84.860817 221.532867,84.235764 
	C215.690323,82.455521 209.821304,80.749832 204.041656,78.782822 
	C202.240036,78.169678 200.690109,76.816986 199.014526,75.414520 
	C216.000671,67.685913 232.974640,60.292191 250.020493,53.068146 
	C252.337173,52.086334 255.013702,51.953674 257.770508,51.694839 
	C257.679504,62.693878 257.341614,73.425911 257.002960,84.578850 
z"/>
<path fill="#090700" opacity="1.000000" stroke="none" 
	d="
M113.791458,375.087158 
	C126.276619,382.705994 124.985222,404.605682 118.158089,412.487701 
	C114.303780,416.937592 109.575615,419.917236 103.598503,420.062195 
	C96.125931,420.243408 88.643776,420.045654 81.166183,419.969635 
	C80.643234,419.964355 80.123810,419.612701 79.661659,418.474579 
	C81.306892,418.201813 82.952126,417.929016 84.983749,417.592194 
	C84.983749,404.074188 85.167015,390.483368 84.745071,376.911377 
	C84.694000,375.268433 81.376328,373.727020 78.538925,371.228241 
	C90.579956,372.607330 102.360840,368.539124 113.791458,375.087158 
M117.969505,395.058777 
	C114.400230,379.702423 102.452789,370.702515 90.845047,375.071075 
	C90.845047,385.539185 90.812996,396.157928 90.853638,406.776428 
	C90.898399,418.469788 90.927498,418.469696 102.796494,417.977234 
	C111.485664,417.616760 116.984329,412.594757 117.948471,403.897491 
	C118.239288,401.274170 118.029167,398.595306 117.969505,395.058777 
z"/>
<path fill="#060500" opacity="1.000000" stroke="none" 
	d="
M214.835541,398.584290 
	C213.503098,396.068115 212.415710,392.484680 210.821899,392.243195 
	C207.459900,391.733734 203.811691,392.872864 200.336517,393.600952 
	C199.796005,393.714203 199.227814,395.223877 199.216797,396.094696 
	C199.126831,403.209045 199.166153,410.325012 199.166153,417.489777 
	C202.066391,418.001160 203.897461,418.324005 205.728516,418.646881 
	C205.710342,418.930481 205.692169,419.214081 205.673996,419.497681 
	C200.306381,419.497681 194.938766,419.497681 189.571152,419.497681 
	C189.491409,419.260162 189.411682,419.022644 189.331940,418.785126 
	C190.865173,418.343933 192.398392,417.902740 194.036591,417.431335 
	C194.036591,401.730743 194.036591,386.005341 194.036591,370.269196 
	C191.987137,369.924622 190.323181,369.644867 188.659241,369.365143 
	C188.655411,369.037445 188.651581,368.709747 188.647751,368.382050 
	C192.205627,367.632507 195.763519,366.882965 199.531158,366.089233 
	C199.531158,374.701538 199.531158,383.045105 199.531158,391.856903 
	C201.595673,390.593323 203.334015,389.383301 205.197647,388.414215 
	C212.980362,384.367432 219.730469,388.417786 219.826157,397.208496 
	C219.899872,403.980225 219.840851,410.753418 219.840851,417.589661 
	C222.094177,417.899902 223.837158,418.139893 225.580124,418.379883 
	C225.594208,418.692474 225.608307,419.005096 225.622391,419.317688 
	C220.636246,419.317688 215.650085,419.317688 210.088913,419.317688 
	C217.979935,416.736206 214.177521,410.395264 214.925262,405.506592 
	C215.247299,403.401123 214.896393,401.192719 214.835541,398.584290 
z"/>
<path fill="#0A0700" opacity="1.000000" stroke="none" 
	d="
M379.427795,419.607178 
	C369.409637,421.542023 364.096954,417.660339 363.003540,407.918762 
	C362.764984,405.792969 362.684631,403.613281 362.852997,401.483826 
	C363.790527,389.625977 373.179382,383.985596 384.082062,388.653717 
	C384.972473,389.034943 385.874237,389.389618 387.014099,389.856232 
	C387.014099,383.140076 387.014099,376.749786 387.014099,370.314789 
	C384.805969,369.948059 382.979584,369.644745 381.153168,369.341431 
	C381.148529,369.042755 381.143890,368.744080 381.139252,368.445374 
	C384.836243,367.700745 388.533234,366.956116 392.926147,366.071320 
	C392.926147,382.851776 392.926147,399.387665 392.926147,416.289520 
	C395.358215,415.901062 397.092255,415.624115 398.826294,415.347137 
	C398.956696,415.638275 399.087128,415.929382 399.217560,416.220520 
	C395.703186,417.807098 392.188812,419.393646 388.182739,421.202209 
	C388.182739,418.933563 388.182739,417.193207 388.182739,414.796082 
	C385.033783,416.534149 382.404602,417.985321 379.427795,419.607178 
M384.848083,414.452179 
	C385.894440,412.628448 387.570099,410.895386 387.848755,408.961060 
	C388.342316,405.535095 388.075226,401.983917 387.960907,398.490601 
	C387.853485,395.207184 388.119873,391.689636 383.996216,390.246490 
	C378.503387,388.324219 372.801605,389.140656 369.991028,392.357300 
	C366.202789,396.692810 365.886078,406.210175 369.347015,411.708710 
	C372.087555,416.062683 377.029572,417.113342 384.848083,414.452179 
z"/>
<path fill="#0A0800" opacity="1.000000" stroke="none" 
	d="
M239.297943,391.570618 
	C247.098175,386.530182 252.595230,386.177277 257.472534,390.213593 
	C262.652100,394.500092 264.311157,405.243103 260.911530,412.482117 
	C258.264771,418.117981 251.534668,421.509674 244.609756,420.405914 
	C241.541718,419.916901 238.560684,418.882080 235.294449,418.031006 
	C234.558609,419.298035 233.841507,420.532806 233.124420,421.767548 
	C232.821304,421.742950 232.518204,421.718384 232.215088,421.693787 
	C232.215088,404.626862 232.215088,387.559937 232.215088,370.497955 
	C230.014923,369.984070 228.513702,369.633453 227.012466,369.282837 
	C227.015259,368.996124 227.018051,368.709412 227.020844,368.422699 
	C230.574326,367.732635 234.127792,367.042572 237.293747,366.427765 
	C237.293747,373.358978 237.196869,380.320496 237.369919,387.275330 
	C237.407593,388.789856 238.411148,390.280365 239.297943,391.570618 
M239.806915,393.166870 
	C236.841232,395.776154 235.927933,414.640930 238.648209,417.100616 
	C243.463379,421.454437 255.588730,418.401306 257.565491,412.036194 
	C259.352173,406.283081 259.092651,400.329956 254.920685,395.597717 
	C251.068176,391.227905 245.804642,391.587524 239.806915,393.166870 
z"/>
<path fill="#070500" opacity="1.000000" stroke="none" 
	d="
M288.240570,419.312561 
	C282.252289,421.201691 276.480225,421.452148 271.958588,416.204803 
	C266.781036,410.196411 266.517456,403.178162 269.058197,396.118256 
	C271.327301,389.813141 276.424927,387.060242 283.000000,386.847656 
	C291.308777,386.579102 295.453186,389.271362 297.793030,396.381287 
	C300.394714,404.286865 298.080444,415.368286 290.644775,418.261597 
	C290.174591,418.193024 289.874603,417.854828 290.011414,417.534180 
	C294.903290,410.484833 295.169281,400.621399 290.763947,394.380432 
	C288.077881,390.575134 282.162384,388.125214 278.093140,389.449310 
	C273.364319,390.988068 273.001007,395.132690 273.031403,399.186676 
	C273.054779,402.308533 273.140564,405.520416 273.871033,408.529022 
	C275.827362,416.586945 279.449554,419.080963 287.892334,418.859558 
	C288.009186,419.009949 288.240570,419.312561 288.240570,419.312561 
z"/>
<path fill="#050400" opacity="1.000000" stroke="none" 
	d="
M340.438751,405.991211 
	C340.438690,402.162415 340.457886,398.829742 340.433716,395.497437 
	C340.391968,389.744995 340.380676,389.745087 335.114685,387.686554 
	C338.417847,387.366821 341.721008,387.047089 345.382050,386.692688 
	C345.562347,388.401520 345.709839,389.799255 345.844788,391.078339 
	C348.931519,389.770325 351.903168,387.768585 355.082184,387.353027 
	C359.001831,386.840607 359.962585,389.764862 357.831696,395.013062 
	C356.589996,394.275848 355.444000,393.350403 354.134979,392.862122 
	C349.319977,391.065948 345.585205,393.608887 345.567230,398.612366 
	C345.544678,404.896759 345.561798,411.181274 345.561798,417.756378 
	C348.839600,417.940155 351.345886,418.080688 353.852203,418.221222 
	C353.839203,418.621552 353.826172,419.021912 353.813171,419.422241 
	C347.626312,419.422241 341.439453,419.422241 335.252625,419.422241 
	C335.172211,419.138763 335.091797,418.855286 335.011414,418.571808 
	C336.552429,418.282043 338.093475,417.992310 340.438477,417.551422 
	C340.438477,413.990356 340.438477,410.238953 340.438751,405.991211 
z"/>
<path fill="#080600" opacity="1.000000" stroke="none" 
	d="
M168.998398,418.486359 
	C171.790909,418.263916 174.769485,418.554321 177.308533,417.633209 
	C178.919449,417.048859 180.800568,414.698181 180.864319,413.073120 
	C180.926880,411.478119 179.190796,409.210022 177.625259,408.288086 
	C174.951736,406.713684 171.686935,406.181885 168.866119,404.809937 
	C164.689590,402.778687 161.854385,399.639587 162.817123,394.543091 
	C163.791580,389.384552 167.688217,387.744690 172.294022,387.259735 
	C179.872604,386.461761 183.404297,389.445557 182.817612,396.998688 
	C181.808640,395.427032 180.867935,394.531189 180.621323,393.473511 
	C179.798630,389.945129 177.204025,389.221344 174.225769,389.242798 
	C170.808868,389.267395 167.053741,389.621185 166.338974,393.728699 
	C165.682007,397.504120 168.636276,399.239288 171.864487,400.293182 
	C174.074234,401.014526 176.284729,401.739746 178.464478,402.545532 
	C182.878418,404.177155 185.253845,407.248322 184.804474,412.085510 
	C184.385025,416.600281 181.240753,419.663544 176.209946,420.240997 
	C174.106659,420.482391 171.935150,420.129425 169.419891,419.607697 
	C169.029541,418.941223 169.013977,418.713806 168.998398,418.486359 
z"/>
<path fill="#050400" opacity="1.000000" stroke="none" 
	d="
M135.759613,389.714783 
	C136.929535,389.163391 138.054459,388.277252 139.276428,388.113007 
	C150.134811,386.653259 152.525482,388.151184 151.571442,398.393188 
	C151.340790,400.869415 151.349213,403.369598 151.076370,405.839844 
	C150.505463,411.009033 151.243256,415.498383 157.009964,417.608368 
	C154.471878,421.948608 151.903885,421.494171 149.084213,418.394867 
	C148.030334,417.236481 146.872116,416.173004 145.376129,415.025879 
	C144.990768,414.985443 144.930099,414.914948 144.999557,414.544250 
	C145.932465,410.638275 148.049240,407.095215 145.005981,403.382812 
	C145.010025,402.913452 145.011017,402.645264 145.011307,402.377075 
	C145.428116,399.223785 146.879852,395.746338 146.017670,392.993652 
	C144.743942,388.927032 140.462708,390.031921 136.542297,390.111694 
	C136.001877,389.991913 135.759613,389.714783 135.759613,389.714783 
z"/>
<path fill="#050400" opacity="1.000000" stroke="none" 
	d="
M320.011292,402.377075 
	C320.428101,399.223816 321.879852,395.746399 321.017670,392.993713 
	C319.743988,388.927155 315.462799,390.031921 311.542389,390.111633 
	C311.001953,389.991821 310.759674,389.714691 310.759674,389.714691 
	C312.423584,389.098389 314.041962,388.165955 315.759033,387.918457 
	C325.053528,386.578827 326.987549,388.462128 326.400818,397.876282 
	C326.225342,400.691528 326.286896,403.525818 326.017700,406.330048 
	C325.532959,411.379639 326.534302,415.596771 332.007446,417.610321 
	C329.473755,421.948578 326.905792,421.495575 324.084869,418.395386 
	C323.030731,417.236877 321.872345,416.173187 320.376160,415.025879 
	C319.990814,414.985474 319.930206,414.914948 319.999634,414.544250 
	C320.932373,410.638245 323.049377,407.095184 320.005951,403.382812 
	C320.010040,402.913452 320.011017,402.645264 320.011292,402.377075 
z"/>
<path fill="#060500" opacity="1.000000" stroke="none" 
	d="
M144.128723,416.137848 
	C143.594406,416.738831 143.156464,417.482819 142.510498,417.918060 
	C137.453369,421.325775 132.051422,421.262665 130.146652,417.837708 
	C128.096939,414.152191 130.655548,407.857971 135.361069,405.368835 
	C136.793823,404.610962 138.453278,404.281647 140.496338,403.874268 
	C140.983795,403.992493 141.210068,404.274017 140.987381,404.534485 
	C140.297607,404.953003 139.800491,405.053253 139.368057,405.277985 
	C134.622513,407.744720 132.358017,411.540863 134.286118,414.594116 
	C136.801468,418.577332 140.297043,416.614014 143.672546,415.605499 
	C143.823212,415.784119 144.128708,416.137848 144.128723,416.137848 
z"/>
<path fill="#060500" opacity="1.000000" stroke="none" 
	d="
M319.128723,416.137817 
	C318.594391,416.738800 318.156464,417.482819 317.510498,417.918091 
	C312.453369,421.325867 307.051422,421.262695 305.146637,417.837708 
	C303.096954,414.152161 305.655579,407.858002 310.361145,405.368805 
	C311.793915,404.610931 313.453339,404.281616 315.496368,403.874298 
	C315.983765,403.992554 316.209900,404.274231 315.987213,404.534637 
	C315.297455,404.953094 314.800293,405.053314 314.367889,405.278076 
	C309.622498,407.744751 307.358002,411.541077 309.286163,414.594208 
	C311.801575,418.577240 315.297089,416.614014 318.672577,415.605499 
	C318.823242,415.784119 319.128723,416.137848 319.128723,416.137817 
z"/>
<path fill="#362900" opacity="1.000000" stroke="none" 
	d="
M168.750305,418.290131 
	C169.013977,418.713806 169.029541,418.941223 169.046539,419.510559 
	C161.658661,418.514801 160.089371,416.034973 161.914627,408.728271 
	C164.084335,411.812958 166.293274,414.953430 168.750305,418.290131 
z"/>
<path fill="#050400" opacity="1.000000" stroke="none" 
	d="
M311.126770,390.127075 
	C309.863403,392.987854 308.475250,395.713348 307.087128,398.438873 
	C306.519897,398.136292 305.952698,397.833740 305.385498,397.531158 
	C304.438171,393.617981 307.348877,391.781738 310.418793,389.781189 
	C310.759674,389.714691 311.001953,389.991821 311.126770,390.127075 
z"/>
<path fill="#050400" opacity="1.000000" stroke="none" 
	d="
M136.126678,390.127197 
	C134.863358,392.987915 133.475235,395.713379 132.087128,398.438873 
	C131.519867,398.136292 130.952621,397.833710 130.385376,397.531158 
	C129.438278,393.618073 132.348801,391.781738 135.418732,389.781250 
	C135.759613,389.714783 136.001877,389.991913 136.126678,390.127197 
z"/>
<path fill="#070600" opacity="1.000000" stroke="none" 
	d="
M319.685242,402.413727 
	C320.011017,402.645264 320.010040,402.913452 319.638062,403.506165 
	C318.248505,403.978546 317.229218,404.126404 316.209900,404.274231 
	C316.209900,404.274231 315.983765,403.992554 315.871460,403.850037 
	C316.959137,403.288452 318.159149,402.869415 319.685242,402.413727 
z"/>
<path fill="#070600" opacity="1.000000" stroke="none" 
	d="
M144.685242,402.413727 
	C145.011017,402.645264 145.010025,402.913452 144.638107,403.506165 
	C143.248596,403.978485 142.229340,404.126251 141.210068,404.274017 
	C141.210068,404.274017 140.983795,403.992493 140.871414,403.850006 
	C141.959076,403.288483 143.159119,402.869446 144.685242,402.413727 
z"/>
<path fill="#070500" opacity="1.000000" stroke="none" 
	d="
M290.315552,418.369751 
	C289.917419,418.787476 289.378326,419.028473 288.539917,419.291016 
	C288.240570,419.312561 288.009186,419.009949 288.072174,418.621399 
	C288.714966,418.106842 289.294800,417.980835 289.874603,417.854828 
	C289.874603,417.854828 290.174591,418.193024 290.315552,418.369751 
z"/>
<path fill="#060500" opacity="1.000000" stroke="none" 
	d="
M145.020752,415.020996 
	C144.911057,415.361877 144.771378,415.667206 144.380219,416.055206 
	C144.128708,416.137848 143.823212,415.784119 143.877258,415.435730 
	C144.264236,415.029846 144.597168,414.972382 144.930099,414.914917 
	C144.930099,414.914948 144.990768,414.985443 145.020752,415.020996 
z"/>
<path fill="#060500" opacity="1.000000" stroke="none" 
	d="
M320.020752,415.020996 
	C319.911041,415.361877 319.771362,415.667206 319.380219,416.055176 
	C319.128723,416.137848 318.823242,415.784119 318.877319,415.435730 
	C319.264313,415.029877 319.597260,414.972412 319.930206,414.914948 
	C319.930206,414.914948 319.990814,414.985474 320.020752,415.020996 
z"/>
<path fill="#FFFEFC" opacity="1.000000" stroke="none" 
	d="
M247.008011,124.160912 
	C248.725174,124.233620 250.442352,124.306328 252.577454,124.271103 
	C264.627380,124.286125 276.283203,124.930412 287.885223,124.399117 
	C302.151520,123.745811 317.085114,133.231857 317.825745,152.730972 
	C317.925079,155.345779 317.839417,157.967621 317.839417,161.067535 
	C312.485992,161.067535 307.221497,161.067535 301.310181,160.654877 
	C300.439911,157.789734 300.109802,155.341446 300.013702,152.884003 
	C299.755859,146.292999 296.640503,142.887955 290.218445,142.876785 
	C256.403931,142.817917 222.589157,142.877197 188.774658,142.805038 
	C185.343262,142.797714 183.980682,144.126602 183.986603,147.507523 
	C184.035370,175.325394 183.953690,203.143631 184.065002,230.961151 
	C184.090927,237.434784 187.207184,240.686371 193.544342,240.759628 
	C206.028595,240.904007 218.517136,240.677673 231.003906,240.604691 
	C234.980103,240.681473 238.975510,240.558487 242.922577,240.938126 
	C244.400726,241.080276 245.766357,242.392334 247.289307,243.585175 
	C247.395340,249.943146 247.395340,255.886917 247.395340,262.619110 
	C240.475525,262.619110 234.214401,262.619110 227.120911,262.563599 
	C213.178253,262.610840 200.067932,262.713623 186.957626,262.816437 
	C182.828888,261.713623 178.259277,261.386017 174.665726,259.342194 
	C167.765488,255.417740 165.112228,248.741760 165.124161,240.827576 
	C165.177383,205.526886 165.127594,170.226013 165.029724,134.463226 
	C165.016098,133.017654 165.211853,132.024734 165.138550,131.052094 
	C164.764267,126.085556 167.120377,124.255600 171.942291,124.511154 
	C176.381577,124.746460 180.846008,124.507065 186.132538,124.425949 
	C206.979828,124.303719 226.993912,124.232315 247.008011,124.160912 
z"/>
<path fill="#EC9A00" opacity="1.000000" stroke="none" 
	d="
M273.001221,338.998840 
	C270.549377,340.234406 268.097565,341.469971 265.324646,342.836212 
	C266.466919,337.617798 264.605804,333.656372 261.436523,329.041656 
	C258.034943,324.088562 257.571259,317.223633 254.813354,311.698212 
	C250.526840,303.110229 252.248093,294.152069 252.098740,285.330627 
	C251.982117,278.441467 252.398804,271.557953 256.209534,265.264984 
	C258.366150,261.703644 259.270691,257.399750 261.285950,253.730591 
	C262.324432,251.839752 264.558990,250.605850 266.683075,249.498962 
	C267.113037,258.489899 267.113037,267.056976 267.113037,276.044983 
	C272.694763,276.044983 277.345551,276.044983 281.998962,276.509766 
	C282.709747,284.312683 283.001068,291.723694 284.267365,298.964172 
	C285.164459,304.093414 287.379700,308.992126 288.966705,314.339020 
	C284.609650,319.632507 280.163452,324.476044 276.028381,329.572021 
	C273.882843,332.216125 270.563080,334.765167 273.001221,338.998840 
z"/>
<path fill="#FFFDFA" opacity="1.000000" stroke="none" 
	d="
M281.996368,276.044983 
	C277.345551,276.044983 272.694763,276.044983 267.113037,276.044983 
	C267.113037,267.056976 267.113037,258.489899 267.025085,249.461121 
	C266.995514,241.307373 267.053894,233.615326 267.024841,225.461548 
	C266.996063,224.673950 267.095306,224.349579 267.107605,224.021957 
	C267.566589,211.791229 267.565491,211.791733 279.762207,211.828003 
	C281.386475,211.832840 283.010742,211.828674 284.925812,211.828674 
	C285.039307,213.902847 285.126892,215.503311 285.212463,218.007843 
	C285.266907,231.936600 285.323364,244.961273 285.283142,258.445374 
	C285.170105,263.642456 285.337646,268.393463 284.995056,273.107422 
	C284.918976,274.153717 283.043396,275.069244 281.996368,276.044983 
z"/>
<path fill="#E69308" opacity="1.000000" stroke="none" 
	d="
M186.972748,263.173279 
	C200.067932,262.713623 213.178253,262.610840 226.663788,262.664948 
	C226.033340,269.142639 224.714035,275.433899 224.115982,281.793060 
	C223.587387,287.413605 223.981476,293.115112 223.724945,298.769836 
	C223.620102,301.080780 222.874954,303.362701 222.421082,305.657806 
	C220.191071,304.607483 217.413040,304.080719 215.824310,302.417755 
	C208.270889,294.511414 200.643921,286.610352 193.869141,278.053436 
	C190.629318,273.961365 189.224045,268.416779 186.972748,263.173279 
z"/>
<path fill="#E58E01" opacity="1.000000" stroke="none" 
	d="
M231.011902,240.249557 
	C218.517136,240.677673 206.028595,240.904007 193.544342,240.759628 
	C187.207184,240.686371 184.090927,237.434784 184.065002,230.961151 
	C183.953690,203.143631 184.035370,175.325394 183.986603,147.507523 
	C183.980682,144.126602 185.343262,142.797714 188.774658,142.805038 
	C222.589157,142.877197 256.403931,142.817917 290.218445,142.876785 
	C296.640503,142.887955 299.755859,146.292999 300.013702,152.884003 
	C300.109802,155.341446 300.439911,157.789734 300.844727,160.615158 
	C293.145538,163.195816 289.598999,170.047165 285.055664,175.846542 
	C283.837921,177.400955 282.595001,179.002808 281.089447,180.252594 
	C275.317627,185.043915 272.707336,191.184647 273.746124,198.405823 
	C271.468536,199.510468 269.181244,200.814362 266.754822,201.761902 
	C257.745178,205.280304 253.081909,213.854492 245.925949,219.537048 
	C239.157303,224.912033 233.380661,231.202057 231.011902,240.249557 
M197.405914,179.500107 
	C197.405914,193.873154 197.405914,208.246216 197.405914,223.799225 
	C201.584900,221.309540 204.751633,219.817154 207.464050,217.733383 
	C215.725250,211.386765 221.296600,203.184677 224.141449,193.060135 
	C226.613098,184.263809 232.722229,179.084259 241.570190,177.215210 
	C244.805481,176.531769 248.131516,176.219696 251.432556,175.917328 
	C259.335114,175.193512 266.999634,173.599152 272.818329,167.794479 
	C275.659851,164.959793 277.653473,161.275131 280.374023,157.498917 
	C278.252197,156.825821 277.636566,156.460449 277.020416,156.459564 
	C251.901413,156.423645 226.782394,156.424179 201.663361,156.408661 
	C198.534561,156.406723 197.263062,157.846497 197.355377,161.034531 
	C197.523804,166.852051 197.404877,172.677887 197.405914,179.500107 
z"/>
<path fill="#ED9B00" opacity="1.000000" stroke="none" 
	d="
M386.575073,161.000824 
	C386.956635,172.363708 386.962738,183.717789 386.603912,195.500092 
	C384.937653,195.224243 383.551239,194.641541 382.347870,193.797760 
	C366.329315,182.566223 348.519714,176.737473 329.004883,176.004272 
	C329.003693,168.673798 328.998535,161.343323 329.002472,154.012848 
	C329.005585,148.173431 330.579254,146.250763 336.191010,147.114563 
	C345.487091,148.545486 354.817932,150.142700 363.873901,152.620819 
	C371.507751,154.709778 378.771881,158.149963 386.575073,161.000824 
z"/>
<path fill="#EFA30B" opacity="1.000000" stroke="none" 
	d="
M281.998962,276.509766 
	C283.043396,275.069244 284.918976,274.153717 284.995056,273.107422 
	C285.337646,268.393463 285.170105,263.642456 285.628113,258.436371 
	C286.804657,257.670746 287.696686,257.547394 288.249084,257.048187 
	C291.931641,253.720551 295.541656,250.312607 299.335449,247.308197 
	C299.495728,257.078888 299.495728,266.472168 299.495728,275.718140 
	C306.093048,275.718140 311.637024,275.718140 317.409210,275.718140 
	C317.409210,270.804321 317.373840,266.317810 317.415955,261.832001 
	C317.534546,249.208572 317.685059,236.585464 317.822998,223.962219 
	C321.237091,223.975296 324.651154,223.988373 328.530273,224.416611 
	C329.000580,226.225510 329.005890,227.619247 329.008545,229.480164 
	C329.002350,238.554825 329.103394,247.163956 328.967346,255.769348 
	C328.815247,265.391663 325.419434,273.700195 318.793243,280.808807 
	C315.249390,284.610687 312.242371,288.912964 308.693481,293.136475 
	C303.926270,298.520813 299.458649,303.758087 294.661316,309.042419 
	C292.556580,310.724213 290.781555,312.358978 289.006561,313.993744 
	C287.379700,308.992126 285.164459,304.093414 284.267365,298.964172 
	C283.001068,291.723694 282.709747,284.312683 281.998962,276.509766 
z"/>
<path fill="#FFFDF9" opacity="1.000000" stroke="none" 
	d="
M317.730682,223.503296 
	C317.685059,236.585464 317.534546,249.208572 317.415955,261.832001 
	C317.373840,266.317810 317.409210,270.804321 317.409210,275.718140 
	C311.637024,275.718140 306.093048,275.718140 299.495728,275.718140 
	C299.495728,266.472168 299.495728,257.078888 299.428467,246.851807 
	C299.289490,235.346130 299.217743,224.674255 299.146027,214.002396 
	C299.235107,204.199646 299.500244,194.393738 299.325287,184.595703 
	C299.256927,180.766251 300.246490,179.097870 304.282379,179.355896 
	C308.393616,179.618729 312.534790,179.414001 317.638367,179.414001 
	C317.638367,194.239578 317.638367,208.641968 317.730682,223.503296 
z"/>
<path fill="#F6AA00" opacity="1.000000" stroke="none" 
	d="
M329.011169,229.012985 
	C329.005890,227.619247 329.000580,226.225510 328.991302,224.413483 
	C328.992615,216.976761 328.997894,209.958328 329.460571,202.470337 
	C335.599670,202.828964 341.426880,203.114288 346.935089,204.590103 
	C361.725586,208.552902 373.057831,217.672577 382.418976,229.549591 
	C383.392029,230.784134 385.390259,231.210648 386.912811,232.012085 
	C386.934875,243.005707 387.240448,254.007858 386.909790,264.990875 
	C386.460480,279.916290 380.876801,292.050323 366.387451,298.612274 
	C367.038086,296.373230 367.867859,294.371887 368.991516,292.552002 
	C375.964630,281.258453 378.151031,269.003143 374.764496,256.302948 
	C371.142365,242.719284 364.028412,231.422943 349.978271,225.579468 
	C349.723022,223.292816 350.464294,220.922012 347.179230,220.975021 
	C342.237183,221.054764 337.292877,220.995804 332.120392,220.995804 
	C331.922058,224.079147 331.763947,226.537094 331.281342,228.994598 
	C330.308319,229.000412 329.659729,229.006699 329.011169,229.012985 
z"/>
<path fill="#F2A300" opacity="1.000000" stroke="none" 
	d="
M386.939697,231.542801 
	C385.390259,231.210648 383.392029,230.784134 382.418976,229.549591 
	C373.057831,217.672577 361.725586,208.552902 346.935089,204.590103 
	C341.426880,203.114288 335.599670,202.828964 329.462646,202.001968 
	C329.005981,193.648972 329.004669,185.294785 329.004089,176.472443 
	C348.519714,176.737473 366.329315,182.566223 382.347870,193.797760 
	C383.551239,194.641541 384.937653,195.224243 386.585938,195.969025 
	C386.944122,207.697647 386.955353,219.385590 386.939697,231.542801 
z"/>
<path fill="#EA9900" opacity="1.000000" stroke="none" 
	d="
M298.751160,214.006409 
	C299.217743,224.674255 299.289490,235.346130 299.268219,246.474365 
	C295.541656,250.312607 291.931641,253.720551 288.249084,257.048187 
	C287.696686,257.547394 286.804657,257.670746 285.724762,257.976959 
	C285.323364,244.961273 285.266907,231.936600 285.303589,218.450958 
	C289.716553,216.663483 294.036407,215.336945 298.751160,214.006409 
z"/>
<path fill="#E89200" opacity="1.000000" stroke="none" 
	d="
M246.958603,123.798141 
	C226.993912,124.232315 206.979828,124.303719 186.510300,124.270218 
	C186.382950,119.722549 186.663849,115.275612 187.056320,110.838547 
	C187.302582,108.054573 188.874100,106.477791 191.721298,107.039406 
	C197.166824,108.113541 202.603928,109.273773 207.976456,110.661797 
	C212.870956,111.926331 217.621521,113.762154 222.531326,114.950233 
	C230.947998,116.986900 239.741699,117.840752 246.958603,123.798141 
z"/>
<path fill="#F8AE00" opacity="1.000000" stroke="none" 
	d="
M350.063477,225.999603 
	C364.028412,231.422943 371.142365,242.719284 374.764496,256.302948 
	C378.151031,269.003143 375.964630,281.258453 368.991516,292.552002 
	C367.867859,294.371887 367.038086,296.373230 366.037354,298.650238 
	C349.243927,306.313934 332.485718,313.618103 315.155334,320.681946 
	C313.391174,319.918427 312.124329,319.518921 311.019806,318.850922 
	C305.653046,315.605164 300.329712,312.287567 294.991028,308.995361 
	C299.458649,303.758087 303.926270,298.520813 308.846588,293.446533 
	C317.599915,301.414398 334.245209,302.187500 345.147858,295.274506 
	C357.186310,287.641327 363.177979,273.815277 359.632721,259.886566 
	C358.169098,254.136124 356.328888,247.965591 349.975830,244.536896 
	C349.949402,238.049850 350.006439,232.024734 350.063477,225.999603 
z"/>
<path fill="#F4A600" opacity="1.000000" stroke="none" 
	d="
M294.661316,309.042419 
	C300.329712,312.287567 305.653046,315.605164 311.019806,318.850922 
	C312.124329,319.518921 313.391174,319.918427 314.792847,320.724182 
	C301.245789,326.975769 287.489105,332.944794 273.366821,338.956299 
	C270.563080,334.765167 273.882843,332.216125 276.028381,329.572021 
	C280.163452,324.476044 284.609650,319.632507 288.966705,314.339020 
	C290.781555,312.358978 292.556580,310.724213 294.661316,309.042419 
z"/>
<path fill="#CA9900" opacity="1.000000" stroke="none" 
	d="
M118.009003,395.500305 
	C118.029167,398.595306 118.239288,401.274170 117.948471,403.897491 
	C116.984329,412.594757 111.485664,417.616760 102.796494,417.977234 
	C90.927498,418.469696 90.898399,418.469788 90.853638,406.776428 
	C90.812996,396.157928 90.845047,385.539185 90.845047,375.071075 
	C102.452789,370.702515 114.400230,379.702423 118.009003,395.500305 
z"/>
<path fill="#C89800" opacity="1.000000" stroke="none" 
	d="
M384.483521,414.650635 
	C377.029572,417.113342 372.087555,416.062683 369.347015,411.708710 
	C365.886078,406.210175 366.202789,396.692810 369.991028,392.357300 
	C372.801605,389.140656 378.503387,388.324219 383.996216,390.246490 
	C388.119873,391.689636 387.853485,395.207184 387.960907,398.490601 
	C388.075226,401.983917 388.342316,405.535095 387.848755,408.961060 
	C387.570099,410.895386 385.894440,412.628448 384.483521,414.650635 
z"/>
<path fill="#C69600" opacity="1.000000" stroke="none" 
	d="
M240.208115,393.051575 
	C245.804642,391.587524 251.068176,391.227905 254.920685,395.597717 
	C259.092651,400.329956 259.352173,406.283081 257.565491,412.036194 
	C255.588730,418.401306 243.463379,421.454437 238.648209,417.100616 
	C235.927933,414.640930 236.841232,395.776154 240.208115,393.051575 
z"/>
<path fill="#C69700" opacity="1.000000" stroke="none" 
	d="
M290.011414,417.534180 
	C289.294800,417.980835 288.714966,418.106842 287.955322,418.471008 
	C279.449554,419.080963 275.827362,416.586945 273.871033,408.529022 
	C273.140564,405.520416 273.054779,402.308533 273.031403,399.186676 
	C273.001007,395.132690 273.364319,390.988068 278.093140,389.449310 
	C282.162384,388.125214 288.077881,390.575134 290.763947,394.380432 
	C295.169281,400.621399 294.903290,410.484833 290.011414,417.534180 
z"/>
<path fill="#C39400" opacity="1.000000" stroke="none" 
	d="
M144.999557,414.544250 
	C144.597168,414.972382 144.264236,415.029846 143.726593,415.257080 
	C140.297043,416.614014 136.801468,418.577332 134.286118,414.594116 
	C132.358017,411.540863 134.622513,407.744720 139.368057,405.277985 
	C139.800491,405.053253 140.297607,404.953003 140.987381,404.534485 
	C142.229340,404.126251 143.248596,403.978485 144.635742,403.707367 
	C148.049240,407.095215 145.932465,410.638275 144.999557,414.544250 
z"/>
<path fill="#C39400" opacity="1.000000" stroke="none" 
	d="
M319.999634,414.544250 
	C319.597260,414.972412 319.264313,415.029877 318.726624,415.257111 
	C315.297089,416.614014 311.801575,418.577240 309.286163,414.594208 
	C307.358002,411.541077 309.622498,407.744751 314.367889,405.278076 
	C314.800293,405.053314 315.297455,404.953094 315.987213,404.534637 
	C317.229218,404.126404 318.248505,403.978546 319.635712,403.707336 
	C323.049377,407.095184 320.932373,410.638245 319.999634,414.544250 
z"/>
<path fill="#FEFBF6" opacity="1.000000" stroke="none" 
	d="
M197.405869,179.000183 
	C197.404877,172.677887 197.523804,166.852051 197.355377,161.034531 
	C197.263062,157.846497 198.534561,156.406723 201.663361,156.408661 
	C226.782394,156.424179 251.901413,156.423645 277.020416,156.459564 
	C277.636566,156.460449 278.252197,156.825821 280.374023,157.498917 
	C277.653473,161.275131 275.659851,164.959793 272.818329,167.794479 
	C266.999634,173.599152 259.335114,175.193512 251.432556,175.917328 
	C248.131516,176.219696 244.805481,176.531769 241.570190,177.215210 
	C232.722229,179.084259 226.613098,184.263809 224.141449,193.060135 
	C221.296600,203.184677 215.725250,211.386765 207.464050,217.733383 
	C204.751633,219.817154 201.584900,221.309540 197.405914,223.799225 
	C197.405914,208.246216 197.405914,193.873154 197.405869,179.000183 
z"/>
<path fill="#FBB402" opacity="1.000000" stroke="none" 
	d="
M350.059265,244.998825 
	C356.328888,247.965591 358.169098,254.136124 359.632721,259.886566 
	C363.177979,273.815277 357.186310,287.641327 345.147858,295.274506 
	C334.245209,302.187500 317.599915,301.414398 309.146179,293.299469 
	C312.242371,288.912964 315.249390,284.610687 318.793243,280.808807 
	C325.419434,273.700195 328.815247,265.391663 328.967346,255.769348 
	C329.103394,247.163956 329.002350,238.554825 329.008545,229.480164 
	C329.659729,229.006699 330.308319,229.000412 331.375305,229.455048 
	C331.807007,243.846313 331.741974,257.777832 331.954803,271.705139 
	C331.976074,273.096313 333.591339,275.561768 334.628906,275.651367 
	C339.509644,276.072815 344.446960,275.838959 350.059265,275.838959 
	C350.059265,265.140015 350.059265,255.069412 350.059265,244.998825 
z"/>
<path fill="#FFFEFA" opacity="1.000000" stroke="none" 
	d="
M349.975830,244.536896 
	C350.059265,255.069412 350.059265,265.140015 350.059265,275.838959 
	C344.446960,275.838959 339.509644,276.072815 334.628906,275.651367 
	C333.591339,275.561768 331.976074,273.096313 331.954803,271.705139 
	C331.741974,257.777832 331.807007,243.846313 331.699768,229.455505 
	C331.763947,226.537094 331.922058,224.079147 332.120392,220.995804 
	C337.292877,220.995804 342.237183,221.054764 347.179230,220.975021 
	C350.464294,220.922012 349.723022,223.292816 349.978271,225.579468 
	C350.006439,232.024734 349.949402,238.049850 349.975830,244.536896 
z"/>
</svg>