<?xml version="1.0" standalone="no"?>
<!DOCTYPE svg PUBLIC "-//W3C//DTD SVG 20010904//EN"
 "http://www.w3.org/TR/2001/REC-SVG-20010904/DTD/svg10.dtd">
<svg version="1.0" xmlns="http://www.w3.org/2000/svg"
 width="535.000000pt" height="486.000000pt" viewBox="0 0 535.000000 486.000000"
 preserveAspectRatio="xMidYMid meet">

<g transform="translate(0.000000,486.000000) scale(0.100000,-0.100000)"
fill="#000000" stroke="none">
<path d="M2260 4071 c-12 -23 2 -106 24 -148 34 -66 106 -113 194 -128 57 -9
72 4 72 64 0 124 -108 229 -237 231 -32 0 -45 -5 -53 -19z"/>
<path d="M2663 4018 c-20 -26 -81 -145 -114 -223 -18 -44 -34 -81 -35 -83 0
-1 -21 5 -45 14 -60 22 -182 22 -234 0 -99 -42 -169 -122 -199 -225 -54 -187
36 -495 188 -646 74 -73 134 -100 219 -96 118 4 141 4 203 -4 54 -7 68 -4 123
20 220 99 374 519 281 768 -28 74 -95 148 -162 178 -65 28 -188 31 -257 6
l-43 -17 17 28 c44 68 101 135 150 174 30 24 54 49 55 55 0 15 -91 63 -118 63
-11 0 -24 -6 -29 -12z"/>
<path d="M3360 2759 c-143 -10 -323 -52 -506 -118 -43 -16 -162 -50 -264 -75
-260 -66 -334 -92 -375 -131 -61 -57 -42 -126 44 -162 71 -30 319 -34 566 -9
l50 6 -50 -15 c-74 -22 -310 -55 -390 -55 -267 0 -380 101 -275 246 22 31 28
45 18 48 -32 11 -719 176 -775 186 -194 38 -342 -81 -218 -175 52 -41 1173
-511 1286 -540 78 -20 178 -19 274 4 44 11 242 67 439 125 198 58 393 113 435
122 134 30 338 21 554 -22 l27 -6 0 240 0 240 -27 6 c-88 19 -338 57 -458 70
-185 20 -242 22 -355 15z"/>
<path d="M4280 1291 c-52 -7 -60 -25 -12 -29 l32 -3 0 -100 0 -100 -30 16
c-41 21 -108 19 -147 -5 -48 -29 -67 -73 -67 -150 0 -69 16 -111 54 -145 34
-31 106 -27 158 8 l42 27 0 -30 c0 -36 0 -36 67 -8 60 25 70 43 18 34 l-35 -7
0 251 c0 232 -1 250 -17 248 -10 0 -38 -4 -63 -7z m5 -245 c16 -11 20 -30 23
-109 4 -91 3 -96 -19 -110 -34 -22 -90 -30 -122 -18 -31 12 -66 77 -67 124 0
35 26 98 47 115 23 16 115 15 138 -2z"/>
<path d="M620 1235 c0 -10 10 -15 30 -15 l30 0 0 -220 0 -220 -25 0 c-14 0
-25 -4 -25 -9 0 -12 189 -25 242 -16 121 20 187 98 196 231 8 121 -32 198
-122 240 -46 21 -65 24 -188 24 -116 0 -138 -2 -138 -15z m267 -43 c81 -42
122 -118 123 -225 0 -112 -38 -167 -128 -182 -24 -4 -63 -4 -88 0 l-44 6 0
216 0 216 49 -6 c27 -3 67 -15 88 -25z"/>
<path d="M2930 1235 c0 -9 9 -15 24 -15 13 0 27 -7 30 -16 3 -9 6 -108 6 -220
l0 -204 -24 0 c-14 0 -28 -4 -31 -10 -4 -6 32 -10 99 -10 64 0 106 4 106 10 0
6 -18 10 -39 10 -49 0 -51 6 -51 126 l0 94 90 0 90 0 0 -36 c0 -24 4 -34 13
-32 15 6 23 158 8 158 -6 0 -13 -11 -17 -25 -6 -24 -9 -25 -95 -25 l-89 0 0
89 0 88 93 -4 c53 -3 101 -11 114 -19 24 -15 27 -13 37 29 l6 27 -185 0 c-158
0 -185 -2 -185 -15z"/>
<path d="M2225 1118 c-48 -44 -49 -45 -27 -57 21 -11 22 -18 22 -141 0 -117 2
-132 20 -150 25 -25 72 -25 126 -1 64 29 60 38 -14 37 l-67 -1 -3 122 -3 122
63 3 c50 2 63 6 66 21 3 15 -5 17 -62 17 l-65 0 -3 36 -3 37 -50 -45z"/>
<path d="M1241 1090 c-77 -19 -121 -80 -121 -170 1 -136 112 -207 230 -147 32
15 51 34 65 62 37 76 17 202 -39 238 -29 19 -93 27 -135 17z m88 -56 c37 -30
55 -90 49 -156 -7 -70 -29 -98 -79 -98 -55 0 -77 14 -100 63 -24 53 -26 163
-3 195 23 33 92 31 133 -4z"/>
<path d="M1518 1093 c-49 -4 -68 -23 -24 -23 32 0 36 -19 29 -166 -6 -122 -6
-124 -30 -124 -12 0 -23 -4 -23 -10 0 -6 35 -10 85 -10 47 0 85 4 85 9 0 5
-12 11 -27 13 l-28 3 -3 115 c-3 131 1 140 74 140 67 0 74 -13 74 -146 l0
-114 -25 0 c-14 0 -25 -4 -25 -10 0 -6 33 -10 80 -10 47 0 80 4 80 10 0 6 -11
10 -25 10 -29 0 -27 -9 -29 142 -1 109 -3 118 -25 142 -31 33 -91 35 -139 6
-41 -25 -42 -25 -42 5 0 14 -3 24 -7 23 -5 -1 -29 -3 -55 -5z"/>
<path d="M3451 1090 c-77 -19 -121 -80 -121 -170 1 -136 112 -207 230 -147 32
15 51 34 65 62 37 76 17 202 -39 238 -29 19 -93 27 -135 17z m88 -56 c37 -30
55 -90 49 -156 -7 -70 -29 -98 -79 -98 -55 0 -77 14 -100 63 -24 53 -26 163
-3 195 23 33 92 31 133 -4z"/>
<path d="M3815 1091 c-79 -20 -120 -76 -120 -166 0 -109 56 -170 155 -170 95
0 151 54 158 153 5 69 -21 141 -60 165 -29 19 -94 28 -133 18z m94 -62 c38
-38 44 -61 39 -144 -5 -81 -24 -105 -83 -105 -70 0 -109 58 -109 165 -1 96 11
115 74 115 41 0 53 -5 79 -31z"/>
<path d="M1963 1080 c-57 -18 -112 -105 -60 -98 15 2 25 13 31 35 12 40 54 53
91 29 20 -13 25 -25 25 -60 0 -41 -2 -44 -32 -50 -89 -18 -138 -62 -138 -126
0 -68 82 -79 146 -19 20 19 20 19 42 -11 25 -33 62 -40 83 -14 11 13 10 17 -3
25 -46 26 -49 37 -47 155 2 73 -1 118 -8 125 -15 15 -91 20 -130 9z m79 -207
c-6 -56 -24 -74 -72 -70 -30 2 -35 6 -38 30 -4 33 12 55 53 73 55 24 63 20 57
-33z"/>
<path d="M2535 1080 c-54 -22 -85 -83 -85 -168 0 -105 63 -167 158 -158 55 5
112 31 120 55 3 10 0 11 -16 2 -37 -20 -126 -14 -157 11 -47 37 -74 128 -37
128 49 0 194 34 199 47 6 16 -30 59 -69 79 -30 15 -82 17 -113 4z m93 -44 c20
-19 34 -37 31 -41 -7 -6 -151 -24 -157 -19 -7 5 9 43 29 68 27 35 52 33 97 -8z"/>
</g>
</svg>
