<?xml version="1.0" standalone="no"?>
<!DOCTYPE svg PUBLIC "-//W3C//DTD SVG 20010904//EN"
 "http://www.w3.org/TR/2001/REC-SVG-20010904/DTD/svg10.dtd">
<svg version="1.0" xmlns="http://www.w3.org/2000/svg"
 width="535.000000pt" height="486.000000pt" viewBox="0 0 535.000000 486.000000"
 preserveAspectRatio="xMidYMid meet">

<g transform="translate(0.000000,486.000000) scale(0.100000,-0.100000)"
fill="#000000" stroke="none">
<path d="M2224 3943 l-31 -4 -6 -142 c-8 -186 -36 -292 -68 -260 -22 22 -40
120 -46 246 -4 95 -9 127 -19 127 -25 0 -180 -52 -250 -85 -150 -69 -273 -176
-322 -282 -30 -67 -42 -191 -23 -254 45 -150 322 -197 1106 -186 607 8 787 43
849 162 30 57 28 191 -2 260 -34 74 -93 146 -164 200 -92 70 -274 153 -394
179 l-31 7 -11 -143 c-11 -145 -23 -201 -49 -228 -12 -13 -15 -13 -23 0 -25
38 -50 205 -50 331 l0 66 -46 7 c-26 3 -64 6 -85 6 l-39 0 0 -87 c-1 -181 -35
-388 -67 -400 -45 -17 -73 92 -80 315 l-6 172 -56 -2 c-31 0 -70 -3 -87 -5z"/>
<path d="M3255 2700 c-120 -13 -232 -40 -424 -102 -101 -33 -288 -86 -414
-119 -137 -35 -250 -70 -280 -87 -60 -32 -90 -75 -82 -117 13 -70 85 -103 245
-112 96 -5 384 9 470 24 19 3 33 3 30 0 -12 -13 -263 -57 -383 -67 -187 -16
-318 5 -382 61 -58 51 -58 117 0 194 l34 44 -332 81 c-518 127 -544 133 -610
126 -96 -10 -167 -56 -167 -111 0 -40 21 -69 73 -99 43 -25 954 -410 1172
-496 247 -97 295 -96 675 15 580 169 668 193 743 205 121 20 365 4 535 -35
l22 -5 0 254 0 253 -92 17 c-242 44 -614 88 -721 85 -23 -1 -73 -5 -112 -9z"/>
<path d="M4280 1291 c-52 -7 -60 -25 -12 -29 l32 -3 0 -100 0 -100 -30 16
c-41 21 -108 19 -147 -5 -48 -29 -67 -73 -67 -150 0 -69 16 -111 54 -145 34
-31 106 -27 158 8 l42 27 0 -30 c0 -36 0 -36 67 -8 60 25 70 43 18 34 l-35 -7
0 251 c0 232 -1 250 -17 248 -10 0 -38 -4 -63 -7z m5 -245 c16 -11 20 -30 23
-109 4 -91 3 -96 -19 -110 -34 -22 -90 -30 -122 -18 -31 12 -66 77 -67 124 0
35 26 98 47 115 23 16 115 15 138 -2z"/>
<path d="M620 1236 c0 -9 12 -16 33 -18 l32 -3 3 -217 2 -218 -30 0 c-16 0
-30 -4 -30 -9 0 -12 196 -24 254 -16 115 18 188 109 190 238 1 92 -22 155 -75
200 -55 47 -97 57 -248 57 -107 0 -131 -3 -131 -14z m235 -27 c57 -16 138
-101 153 -161 37 -146 -15 -249 -132 -263 -60 -8 -106 0 -118 18 -9 15 -11
401 -1 410 10 10 53 8 98 -4z"/>
<path d="M2930 1235 c0 -9 9 -15 24 -15 13 0 27 -7 30 -16 3 -9 6 -108 6 -220
l0 -204 -24 0 c-14 0 -28 -4 -31 -10 -4 -6 32 -10 99 -10 64 0 106 4 106 10 0
6 -18 10 -39 10 -49 0 -51 6 -51 126 l0 94 90 0 90 0 0 -36 c0 -24 4 -34 13
-32 15 6 23 158 8 158 -6 0 -13 -11 -17 -25 -6 -24 -9 -25 -95 -25 l-89 0 0
89 0 88 93 -4 c53 -3 101 -11 114 -19 24 -15 27 -13 37 29 l6 27 -185 0 c-158
0 -185 -2 -185 -15z"/>
<path d="M2230 1119 l-45 -40 23 -17 c22 -17 23 -22 20 -146 -3 -124 -2 -128
21 -147 30 -24 74 -24 129 1 59 27 54 40 -14 33 -78 -8 -84 1 -84 139 l0 108
65 0 c58 0 65 2 65 20 0 18 -7 20 -65 20 l-64 0 5 29 c9 43 -6 43 -56 0z"/>
<path d="M1241 1090 c-77 -19 -121 -80 -121 -170 1 -136 112 -207 230 -147 32
15 51 34 65 62 37 76 17 202 -39 238 -29 19 -93 27 -135 17z m88 -56 c37 -30
55 -90 49 -156 -7 -70 -29 -98 -79 -98 -55 0 -77 14 -100 63 -24 53 -26 163
-3 195 23 33 92 31 133 -4z"/>
<path d="M1518 1093 c-49 -4 -68 -23 -24 -23 32 0 36 -19 29 -166 -6 -122 -6
-124 -30 -124 -12 0 -23 -4 -23 -10 0 -6 35 -10 85 -10 47 0 85 4 85 9 0 5
-12 11 -27 13 l-28 3 -3 115 c-3 131 1 140 74 140 67 0 74 -13 74 -146 l0
-114 -25 0 c-14 0 -25 -4 -25 -10 0 -6 33 -10 80 -10 47 0 80 4 80 10 0 6 -11
10 -25 10 -29 0 -27 -9 -29 142 -1 109 -3 118 -25 142 -31 33 -91 35 -139 6
-41 -25 -42 -25 -42 5 0 14 -3 24 -7 23 -5 -1 -29 -3 -55 -5z"/>
<path d="M3455 1091 c-79 -20 -120 -76 -120 -166 0 -109 56 -170 155 -170 95
0 151 54 158 153 5 69 -21 141 -60 165 -29 19 -94 28 -133 18z m94 -62 c38
-38 44 -61 39 -144 -5 -81 -24 -105 -83 -105 -70 0 -109 58 -109 165 -1 96 11
115 74 115 41 0 53 -5 79 -31z"/>
<path d="M3815 1091 c-79 -20 -120 -76 -120 -166 0 -109 56 -170 155 -170 95
0 151 54 158 153 5 69 -21 141 -60 165 -29 19 -94 28 -133 18z m94 -62 c38
-38 44 -61 39 -144 -5 -81 -24 -105 -83 -105 -70 0 -109 58 -109 165 -1 96 11
115 74 115 41 0 53 -5 79 -31z"/>
<path d="M1963 1080 c-57 -18 -112 -105 -60 -98 15 2 25 13 31 35 12 40 54 53
91 29 20 -13 25 -25 25 -60 0 -41 -2 -44 -32 -50 -89 -18 -138 -62 -138 -126
0 -68 82 -79 146 -19 20 19 20 19 42 -11 25 -33 62 -40 83 -14 11 13 10 17 -3
25 -46 26 -49 37 -47 155 2 73 -1 118 -8 125 -15 15 -91 20 -130 9z m79 -207
c-6 -56 -24 -74 -72 -70 -30 2 -35 6 -38 30 -4 33 12 55 53 73 55 24 63 20 57
-33z"/>
<path d="M2535 1080 c-54 -22 -85 -83 -85 -168 0 -105 63 -167 158 -158 55 5
112 31 120 55 3 10 0 11 -16 2 -37 -20 -126 -14 -157 11 -47 37 -74 128 -37
128 49 0 194 34 199 47 6 16 -30 59 -69 79 -30 15 -82 17 -113 4z m93 -44 c20
-19 34 -37 31 -41 -7 -6 -151 -24 -157 -19 -7 5 9 43 29 68 27 35 52 33 97 -8z"/>
</g>
</svg>
