<?xml version="1.0" standalone="no"?>
<!DOCTYPE svg PUBLIC "-//W3C//DTD SVG 20010904//EN"
 "http://www.w3.org/TR/2001/REC-SVG-20010904/DTD/svg10.dtd">
<svg version="1.0" xmlns="http://www.w3.org/2000/svg"
 width="515.000000pt" height="486.000000pt" viewBox="0 0 515.000000 486.000000"
 preserveAspectRatio="xMidYMid meet">

<g transform="translate(0.000000,486.000000) scale(0.100000,-0.100000)"
fill="#000000" stroke="none">
<path d="M2153 4330 c-447 -80 -795 -462 -831 -910 -15 -201 14 -361 98 -535
131 -271 366 -462 665 -542 87 -23 120 -26 250 -26 130 0 163 3 249 26 54 15
143 49 197 75 l97 49 363 -363 364 -364 127 127 128 128 -360 360 -359 360 30
45 c80 117 138 264 164 414 85 494 -232 985 -730 1132 -77 23 -112 27 -245 30
-85 1 -178 -1 -207 -6z m385 -260 c333 -94 563 -399 562 -747 -1 -334 -212
-622 -535 -730 -73 -25 -93 -27 -235 -27 -143 0 -161 2 -235 28 -252 87 -434
278 -507 533 -29 102 -31 295 -4 392 80 292 307 504 603 566 91 19 255 12 351
-15z"/>
<path d="M2400 1221 c-52 -7 -60 -25 -12 -29 l32 -3 0 -100 0 -100 -30 16
c-41 21 -108 19 -147 -5 -48 -29 -67 -73 -67 -150 0 -69 16 -111 54 -145 34
-31 106 -27 158 8 l42 27 0 -30 c0 -36 0 -36 67 -8 60 25 70 43 18 34 l-35 -7
0 251 c0 232 -1 250 -17 248 -10 0 -38 -4 -63 -7z m5 -245 c16 -11 20 -30 23
-109 4 -91 3 -96 -19 -110 -34 -22 -90 -30 -122 -18 -31 12 -66 77 -67 124 0
35 26 98 47 115 23 16 115 15 138 -2z"/>
<path d="M4080 1221 c-52 -7 -60 -25 -12 -29 l32 -3 0 -100 0 -100 -30 16
c-41 21 -108 19 -147 -5 -48 -29 -67 -73 -67 -150 0 -69 16 -111 54 -145 34
-31 106 -27 158 8 l42 27 0 -30 c0 -36 0 -36 67 -8 60 25 70 43 18 34 l-35 -7
0 251 c0 232 -1 250 -17 248 -10 0 -38 -4 -63 -7z m5 -245 c16 -11 20 -30 23
-109 4 -91 3 -96 -19 -110 -34 -22 -90 -30 -122 -18 -31 12 -66 77 -67 124 0
35 26 98 47 115 23 16 115 15 138 -2z"/>
<path d="M1180 1165 c0 -10 10 -15 30 -15 l30 0 0 -220 0 -220 -25 0 c-14 0
-25 -4 -25 -10 0 -6 42 -10 107 -10 66 0 103 4 98 9 -6 5 -26 11 -45 13 -42 4
-48 19 -49 136 l-1 82 95 0 95 0 0 -35 c0 -19 5 -35 10 -35 6 0 10 33 10 80 0
47 -4 80 -10 80 -5 0 -10 -11 -10 -25 0 -25 0 -25 -95 -25 l-95 0 0 59 c0 32
3 72 6 88 l6 30 91 -5 c64 -3 98 -9 110 -20 16 -14 19 -14 27 -2 6 8 10 25 10
38 l0 22 -185 0 c-158 0 -185 -2 -185 -15z"/>
<path d="M2730 1165 c0 -9 9 -15 24 -15 13 0 27 -7 30 -16 3 -9 6 -108 6 -220
l0 -204 -24 0 c-14 0 -28 -4 -31 -10 -4 -6 32 -10 99 -10 64 0 106 4 106 10 0
6 -18 10 -39 10 -49 0 -51 6 -51 126 l0 94 90 0 90 0 0 -36 c0 -24 4 -34 13
-32 15 6 23 158 8 158 -6 0 -13 -11 -17 -25 -6 -24 -9 -25 -95 -25 l-89 0 0
89 0 88 93 -4 c53 -3 101 -11 114 -19 24 -15 27 -13 37 29 l6 27 -185 0 c-158
0 -185 -2 -185 -15z"/>
<path d="M1635 1150 c-21 -23 -14 -50 13 -50 26 0 54 33 46 54 -8 22 -37 20
-59 -4z"/>
<path d="M1622 1023 c-56 -4 -69 -25 -19 -31 l27 -3 0 -140 0 -139 -30 0 c-16
0 -30 -4 -30 -10 0 -6 39 -10 96 -10 61 0 93 4 89 10 -3 6 -17 10 -30 10 -34
0 -38 23 -34 178 3 85 0 136 -6 137 -5 0 -34 -1 -63 -2z"/>
<path d="M1818 1023 c-52 -4 -67 -23 -18 -23 l30 0 0 -145 0 -145 -30 0 c-16
0 -30 -4 -30 -10 0 -6 37 -10 90 -10 53 0 90 4 90 10 0 6 -13 10 -30 10 l-30
0 0 120 c0 135 3 140 79 140 59 0 71 -23 71 -136 0 -106 -5 -124 -31 -124 -10
0 -19 -4 -19 -10 0 -6 33 -10 80 -10 47 0 80 4 80 10 0 6 -13 10 -30 10 l-30
0 0 120 c0 125 -11 171 -45 184 -32 12 -91 6 -122 -14 l-32 -19 -3 21 c-3 25
-6 25 -70 21z"/>
<path d="M3255 1021 c-79 -20 -120 -76 -120 -166 0 -109 56 -170 155 -170 95
0 151 54 158 153 5 69 -21 141 -60 165 -29 19 -94 28 -133 18z m94 -62 c38
-38 44 -61 39 -144 -5 -81 -24 -105 -83 -105 -70 0 -109 58 -109 165 -1 96 11
115 74 115 41 0 53 -5 79 -31z"/>
<path d="M3615 1021 c-79 -20 -120 -76 -120 -166 0 -109 56 -170 155 -170 95
0 151 54 158 153 5 69 -21 141 -60 165 -29 19 -94 28 -133 18z m94 -62 c38
-38 44 -61 39 -144 -5 -81 -24 -105 -83 -105 -70 0 -109 58 -109 165 -1 96 11
115 74 115 41 0 53 -5 79 -31z"/>
</g>
</svg>
