<svg width="514" height="486" xmlns="http://www.w3.org/2000/svg" xmlns:xlink="http://www.w3.org/1999/xlink" xml:space="preserve" overflow="hidden"><defs><clipPath id="clip0"><rect x="3317" y="1508" width="514" height="486"/></clipPath><clipPath id="clip1"><rect x="3444" y="1559" width="259" height="261"/></clipPath><clipPath id="clip2"><rect x="3444" y="1559" width="259" height="261"/></clipPath><clipPath id="clip3"><rect x="3444" y="1559" width="259" height="261"/></clipPath></defs><g clip-path="url(#clip0)" transform="translate(-3317 -1508)"><path d="M3320.5 1591.33C3320.5 1547.24 3356.24 1511.5 3400.33 1511.5L3747.67 1511.5C3791.76 1511.5 3827.5 1547.24 3827.5 1591.33L3827.5 1910.67C3827.5 1954.76 3791.76 1990.5 3747.67 1990.5L3400.33 1990.5C3356.24 1990.5 3320.5 1954.76 3320.5 1910.67Z" stroke="#FFFFFF" stroke-width="6.875" stroke-miterlimit="8" fill="#CC9B00" fill-rule="evenodd"/><text font-family="Californian FB,Californian FB_MSFontService,sans-serif" font-weight="400" font-size="73" transform="matrix(1 0 0 1 3431.62 1921)">List<tspan font-size="73" x="130.625" y="0">Foo</tspan><tspan font-size="73" x="244.063" y="0">d</tspan></text><g clip-path="url(#clip1)"><g clip-path="url(#clip2)"><g clip-path="url(#clip3)"><path d="M127.932 0C78.6837 0 38.6183 40.0654 38.6183 89.3134 38.6183 103.011 41.6404 116.156 47.6446 128.469 55.9033 145.046 80.0796 185.919 105.674 229.188L118.141 250.274C120.185 253.737 123.909 255.864 127.932 255.864 131.954 255.864 135.679 253.737 137.723 250.274L150.181 229.2C175.602 186.226 199.625 145.618 208.043 128.819 208.119 128.674 208.199 128.526 208.27 128.378 214.226 116.145 217.245 103.002 217.245 89.3134 217.245 40.0654 177.18 0 127.932 0ZM127.932 121.706C108.338 121.706 92.3952 105.765 92.3952 86.1691 92.3952 66.5728 108.338 50.6325 127.932 50.6325 147.525 50.6325 163.468 66.5757 163.468 86.1691 163.468 105.763 147.525 121.706 127.932 121.706Z" transform="matrix(1 0 0 1 3445.42 1561.42)"/></g></g></g></g></svg>