<?xml version="1.0" standalone="no"?>
<!DOCTYPE svg PUBLIC "-//W3C//DTD SVG 20010904//EN"
 "http://www.w3.org/TR/2001/REC-SVG-20010904/DTD/svg10.dtd">
<svg version="1.0" xmlns="http://www.w3.org/2000/svg"
 width="514.000000pt" height="486.000000pt" viewBox="0 0 514.000000 486.000000"
 preserveAspectRatio="xMidYMid meet">

<g transform="translate(0.000000,486.000000) scale(0.100000,-0.100000)"
fill="#000000" stroke="none">
<path d="M2390 4311 c-244 -53 -439 -185 -571 -385 -177 -269 -199 -595 -59
-891 47 -99 654 -1145 709 -1222 9 -12 33 -29 55 -38 45 -19 90 -8 123 28 18
20 270 443 510 857 274 471 298 535 297 780 -1 128 -4 155 -28 235 -94 310
-335 546 -641 625 -116 31 -285 35 -395 11z m327 -532 c62 -30 125 -94 159
-161 40 -76 45 -198 13 -283 -30 -82 -112 -163 -194 -195 -133 -50 -277 -21
-377 77 -69 68 -102 147 -102 248 0 96 28 167 94 239 99 108 274 140 407 75z"/>
<path d="M3830 1261 c-52 -7 -60 -25 -12 -29 l32 -3 0 -100 0 -100 -30 16
c-41 21 -108 19 -147 -5 -48 -29 -67 -73 -67 -150 0 -69 16 -111 54 -145 34
-31 106 -27 158 8 l42 27 0 -30 c0 -36 0 -36 67 -8 60 25 70 43 18 34 l-35 -7
0 251 c0 232 -1 250 -17 248 -10 0 -38 -4 -63 -7z m5 -245 c16 -11 20 -30 23
-109 4 -91 3 -96 -19 -110 -34 -22 -90 -30 -122 -18 -31 12 -66 77 -67 124 0
35 26 98 47 115 23 16 115 15 138 -2z"/>
<path d="M1170 1205 c0 -10 10 -15 30 -15 l30 0 0 -220 0 -220 -30 0 c-16 0
-30 -4 -30 -10 0 -6 65 -10 175 -10 l175 0 16 25 c22 34 15 38 -29 20 -23 -9
-68 -15 -121 -15 l-84 0 -7 31 c-4 16 -4 113 0 215 l8 184 38 0 c28 0 39 4 39
15 0 12 -18 15 -105 15 -87 0 -105 -3 -105 -15z"/>
<path d="M2480 1205 c0 -9 9 -15 24 -15 13 0 27 -7 30 -16 3 -9 6 -108 6 -220
l0 -204 -24 0 c-14 0 -28 -4 -31 -10 -4 -6 32 -10 99 -10 64 0 106 4 106 10 0
6 -18 10 -39 10 -49 0 -51 6 -51 126 l0 94 90 0 90 0 0 -36 c0 -24 4 -34 13
-32 15 6 23 158 8 158 -6 0 -13 -11 -17 -25 -6 -24 -9 -25 -95 -25 l-89 0 0
89 0 88 93 -4 c53 -3 101 -11 114 -19 24 -15 27 -13 37 29 l6 27 -185 0 c-158
0 -185 -2 -185 -15z"/>
<path d="M1615 1190 c-21 -23 -14 -50 13 -50 26 0 54 33 46 54 -8 22 -37 20
-59 -4z"/>
<path d="M2095 1088 c-48 -44 -49 -45 -27 -57 21 -11 22 -18 22 -141 0 -117 2
-132 20 -150 25 -25 72 -25 126 -1 64 29 60 38 -14 37 l-67 -1 -3 122 -3 122
63 3 c50 2 63 6 66 21 3 15 -5 17 -62 17 l-65 0 -3 36 -3 37 -50 -45z"/>
<path d="M1602 1063 c-56 -4 -69 -25 -19 -31 l27 -3 0 -140 0 -139 -30 0 c-16
0 -30 -4 -30 -10 0 -6 39 -10 96 -10 61 0 93 4 89 10 -3 6 -17 10 -30 10 -34
0 -38 23 -34 178 3 85 0 136 -6 137 -5 0 -34 -1 -63 -2z"/>
<path d="M3005 1061 c-79 -20 -120 -76 -120 -166 0 -109 56 -170 155 -170 95
0 151 54 158 153 5 69 -21 141 -60 165 -29 19 -94 28 -133 18z m94 -62 c38
-38 44 -61 39 -144 -5 -81 -24 -105 -83 -105 -70 0 -109 58 -109 165 -1 96 11
115 74 115 41 0 53 -5 79 -31z"/>
<path d="M3365 1061 c-79 -20 -120 -76 -120 -166 0 -109 56 -170 155 -170 95
0 151 54 158 153 5 69 -21 141 -60 165 -29 19 -94 28 -133 18z m94 -62 c38
-38 44 -61 39 -144 -5 -81 -24 -105 -83 -105 -70 0 -109 58 -109 165 -1 96 11
115 74 115 41 0 53 -5 79 -31z"/>
<path d="M1844 1050 c-31 -12 -54 -49 -54 -86 0 -43 37 -77 113 -106 54 -21
62 -27 65 -53 5 -39 -19 -55 -80 -55 -44 0 -50 3 -68 33 -11 17 -20 40 -20 50
0 9 -5 17 -11 17 -6 0 -9 -19 -7 -47 3 -42 7 -50 33 -63 17 -8 56 -15 87 -15
49 0 61 4 85 28 21 20 28 37 28 67 0 52 -22 73 -105 102 -52 19 -66 28 -75 51
-13 38 12 57 72 57 40 0 45 -3 60 -35 21 -44 33 -45 33 0 0 28 -5 37 -30 50
-32 16 -92 19 -126 5z"/>
</g>
</svg>
