<svg xmlns="http://www.w3.org/2000/svg" version="1.1" xmlns:xlink="http://www.w3.org/1999/xlink" xmlns:svgjs="http://svgjs.dev/svgjs" width="1000" height="1000" viewBox="0 0 1000 1000"><rect width="1000" height="1000" fill="#000000"></rect><g transform="matrix(0.7,0,0,0.7,149.65000000000003,149.65000000000003)"><svg viewBox="0 0 280 280" data-background-color="#471aa0" preserveAspectRatio="xMidYMid meet" height="1000" width="1000" xmlns="http://www.w3.org/2000/svg" xmlns:xlink="http://www.w3.org/1999/xlink"><g id="tight-bounds" transform="matrix(1,0,0,1,0.13999999999998636,0.13999999999998636)"><svg viewBox="0 0 279.72 279.72" height="279.72" width="279.72"><g><svg viewBox="0 0 279.72 279.72" height="279.72" width="279.72"><g><svg viewBox="0 0 279.72 279.72" height="279.72" width="279.72"><g id="textblocktransform"><svg viewBox="0 0 279.72 279.72" height="279.72" width="279.72" id="textblock"><g><svg viewBox="0 0 279.72 279.72" height="279.72" width="279.72"><g transform="matrix(1,0,0,1,73.92936372216631,94.63608992645769)"><svg viewBox="0 0 131.8612725556674 90.44782014708466" height="90.44782014708466" width="131.8612725556674"><g><svg xmlns="http://www.w3.org/2000/svg" xmlns:xlink="http://www.w3.org/1999/xlink" version="1.1" x="0" y="0" viewBox="0 8.712886810302734 50.3390007019043 34.52911376953125" enable-background="new 0 0 50.4 50.4" xml:space="preserve" width="131.8612725556674" height="90.44782014708466" class="icon-o-0" data-fill-palette-color="accent" id="o-0"><g fill="#ffffff" data-fill-palette-color="accent"><path d="M0.536 23.697C0.177 23.361 0 22.92 0 22.374v-7.72c0-0.336 0.167-0.505 0.505-0.505 0.313 0 0.472 0.179 0.472 0.536v5.703h1.672v-5.766c0-0.315 0.154-0.473 0.472-0.473 0.292 0 0.441 0.169 0.441 0.505v5.734h1.734v-5.766c0-0.315 0.156-0.473 0.471-0.473 0.333 0 0.502 0.169 0.502 0.505V22.5c0 0.42-0.171 0.809-0.518 1.165-0.349 0.357-0.765 0.536-1.246 0.536v14.054c0 0.987-0.452 1.48-1.354 1.48-0.903 0-1.354-0.493-1.354-1.48V24.201C1.313 24.201 0.893 24.033 0.536 23.697z" fill="#ffffff" data-fill-palette-color="accent"></path><path d="M41.815 25.86c-1.157-0.887-1.391-2.491-0.621-3.695-0.592 0.003-1.191-0.139-1.697-0.527-1.226-0.931-1.457-2.683-0.528-3.905 0.459-0.595 1.113-0.947 1.803-1.049C38.245 12.855 34.248 10 29.39 9.047 19.784 7.165 10.471 13.424 8.585 23.03c-1.737 8.855 3.456 17.445 11.8 20.212-0.396-0.623-0.576-1.388-0.422-2.166 0.182-0.924 0.79-1.621 1.563-2.026-0.414-0.301-0.707-0.716-0.918-1.177-5.13-2.416-8.201-8.058-7.064-13.869 1.165-5.932 6.388-10.235 12.421-10.235 0.816 0 1.64 0.079 2.448 0.238 3.322 0.652 6.19 2.557 8.08 5.365 1.89 2.81 2.57 6.187 1.918 9.507-0.464 2.378-1.605 4.476-3.166 6.157-0.003 0.013 0.002 0.022 0 0.034 0.451-0.127 0.922-0.186 1.415-0.09 1.582 0.311 2.605 1.796 2.421 3.373 2.11-2.316 3.646-5.203 4.292-8.501 0.229-1.16 0.331-2.316 0.329-3.455C43.049 26.444 42.377 26.289 41.815 25.86z" fill="#ffffff" data-fill-palette-color="accent"></path><path d="M47.595 29.591h-1.445V16.45c0-0.713 0.22-1.292 0.661-1.732 0.395-0.378 0.882-0.568 1.446-0.568 0.549 0 1.021 0.19 1.42 0.568 0.442 0.442 0.662 1.02 0.662 1.736v21.831c0 0.968-0.452 1.451-1.354 1.451-0.929 0-1.391-0.484-1.391-1.454V29.591z" fill="#ffffff" data-fill-palette-color="accent"></path><path d="M20.348 36.086c0.312-1.613 1.882-2.668 3.492-2.353 0.126 0.025 0.222 0.102 0.34 0.142-0.004-0.205-0.045-0.403-0.004-0.612 0.315-1.616 1.885-2.668 3.495-2.352 1.076 0.21 1.859 0.997 2.195 1.964 0.655-0.947 1.826-1.474 3.029-1.238 1.074 0.212 1.854 0.997 2.192 1.962 1.11-1.409 1.931-3.069 2.292-4.923 0.598-3.045-0.024-6.142-1.759-8.718-1.73-2.577-4.362-4.324-7.411-4.92-0.74-0.145-1.498-0.219-2.245-0.219-5.532 0-10.322 3.947-11.39 9.388-0.992 5.053 1.503 9.951 5.774 12.338C20.355 36.39 20.317 36.242 20.348 36.086z" fill="#ffffff" data-fill-palette-color="accent"></path></g></svg></g></svg></g><g><path d="M8.413 84.409l24.557 8.547-1.135 3.261-11.348-3.949-4.307 12.374 11.348 3.95-1.129 3.242-24.557-8.547 1.129-3.242 10.561 3.676 4.307-12.375-10.561-3.676z" fill="#ffffff" data-fill-palette-color="primary"></path><path d="M22.453 60.547l1.824-2.92 14.997 9.37c2.075 1.305 3.368 3.019 3.877 5.142 0.516 2.127 0.16 4.351-1.068 6.674v0l-0.458 0.791c-1.507 2.412-3.361 3.928-5.562 4.55-2.191 0.619-4.437 0.226-6.736-1.179v0l-15.023-9.387 1.798-2.877 14.936 9.333c1.591 0.994 3.103 1.328 4.536 1.002 1.433-0.326 2.658-1.302 3.673-2.927v0c1.03-1.648 1.378-3.183 1.045-4.605-0.333-1.422-1.298-2.632-2.894-3.629v0z" fill="#ffffff" data-fill-palette-color="primary"></path><path d="M46.095 34.232l18.615 18.154-2.411 2.473-23.488-4.619 14.347 13.992-2.404 2.465-18.615-18.154 2.404-2.465 23.581 4.653-14.412-14.056z" fill="#ffffff" data-fill-palette-color="primary"></path><path d="M79.738 27.264l5.141 8.033c-0.059 1.541-0.585 2.999-1.578 4.374-0.993 1.375-2.371 2.627-4.133 3.755v0c-1.785 1.143-3.639 1.738-5.561 1.787-1.913 0.051-3.744-0.454-5.492-1.515-1.748-1.06-3.282-2.603-4.602-4.628v0l-1.221-1.907c-2.113-3.302-2.983-6.351-2.61-9.147 0.379-2.799 1.963-5.091 4.753-6.876v0c2.287-1.464 4.5-2.056 6.64-1.778 2.146 0.275 4.059 1.386 5.739 3.333v0l-2.883 1.846c-2.396-2.551-5.048-2.895-7.957-1.034v0c-1.939 1.241-2.971 2.858-3.094 4.851-0.129 1.996 0.625 4.287 2.263 6.872v0l1.145 1.788c1.573 2.458 3.385 4.052 5.436 4.781 2.051 0.73 4.034 0.481 5.95-0.745v0c1.078-0.69 1.948-1.416 2.61-2.177 0.657-0.758 1.068-1.592 1.233-2.502v0l-3.148-4.919-5.065 3.241-1.505-2.352z" fill="#ffffff" data-fill-palette-color="primary"></path><path d="M101.532 16.545l0.998 2.62-10.526 4.011 3.281 8.609 12.234-4.662 0.998 2.619-15.442 5.885-9.259-24.298 15.272-5.819 1.005 2.638-12.063 4.597 2.976 7.811z" fill="#ffffff" data-fill-palette-color="primary"></path><path d="M128.91 26.31l-7.324-9.432-6.019 1.019 1.757 10.375-3.405 0.576-4.341-25.637 8.493-1.438c2.884-0.488 5.215-0.206 6.993 0.846 1.778 1.052 2.88 2.833 3.305 5.343v0c0.27 1.596 0.075 3.061-0.585 4.395-0.661 1.328-1.71 2.415-3.146 3.262v0l7.862 9.867 0.036 0.211zM113.455 5.419l1.644 9.714 5.188-0.878c1.682-0.285 2.944-0.945 3.785-1.98 0.848-1.036 1.149-2.282 0.902-3.738v0c-0.268-1.582-0.948-2.717-2.039-3.405-1.084-0.682-2.518-0.879-4.303-0.59v0z" fill="#ffffff" data-fill-palette-color="primary"></path><path d="M158.278 0.738l-0.96 25.984-3.451-0.127 0.444-12.008-13.094-0.484-0.444 12.008-3.43-0.127 0.959-25.984 3.431 0.127-0.413 11.175 13.094 0.484 0.413-11.176z" fill="#ffffff" data-fill-palette-color="primary"></path><path d="M182.169 17.753l-0.698 2.715-10.909-2.804-2.294 8.922 12.68 3.26-0.697 2.715-16.006-4.115 6.474-25.183 15.828 4.069-0.703 2.735-12.503-3.214-2.081 8.096z" fill="#ffffff" data-fill-palette-color="primary"></path><path d="M199.415 12.859l-9.794 21.03 11.178 5.205-1.183 2.542-14.3-6.66 10.978-23.571z" fill="#ffffff" data-fill-palette-color="primary"></path><path d="M217.521 42.056l-4.966-3.585-5.957 8.253-2.783-2.01 15.218-21.083 7.774 5.611c2.312 1.668 3.695 3.564 4.15 5.689 0.459 2.118-0.011 4.146-1.411 6.084v0c-1.478 2.048-3.255 3.162-5.331 3.342-2.08 0.186-4.311-0.581-6.694-2.301zM220.164 27.93l-5.968 8.268 4.99 3.603c1.488 1.074 2.881 1.545 4.179 1.413 1.294-0.127 2.418-0.852 3.374-2.175v0c0.908-1.257 1.237-2.547 0.99-3.871-0.248-1.323-1.051-2.495-2.409-3.517v0z" fill="#ffffff" data-fill-palette-color="primary"></path><path d="M243.599 60.489l-2.053 1.909-7.67-8.25-6.747 6.273 8.915 9.589-2.053 1.908-11.252-12.102 19.042-17.706 11.128 11.969-2.067 1.923-8.791-9.455-6.122 5.692z" fill="#ffffff" data-fill-palette-color="primary"></path><path d="M244.837 89.529l5.989-10.332-3.206-5.195-8.955 5.527-1.814-2.939 22.127-13.656 4.524 7.329c1.536 2.489 2.151 4.756 1.845 6.799-0.307 2.043-1.543 3.733-3.71 5.071v0c-1.377 0.85-2.808 1.22-4.292 1.109-1.479-0.114-2.881-0.677-4.206-1.689v0l-6.189 10.993-0.182 0.112zM258.389 67.355l-8.384 5.175 2.763 4.477c0.896 1.452 1.982 2.373 3.258 2.764 1.279 0.396 2.547 0.207 3.803-0.569v0c1.366-0.843 2.162-1.899 2.388-3.169 0.225-1.261-0.132-2.664-1.07-4.209v0z" fill="#ffffff" data-fill-palette-color="primary"></path><path d="M261.855 100.44v0c-0.221-3.05 0.016-5.417 0.71-7.101 0.696-1.677 1.892-2.828 3.589-3.453v0c1.925-0.709 3.796-0.527 5.611 0.544 1.824 1.075 3.189 2.842 4.094 5.301v0c0.617 1.678 0.843 3.29 0.676 4.838-0.164 1.554-0.683 2.899-1.556 4.036-0.871 1.143-1.983 1.964-3.337 2.461v0l-1.192-3.241c1.474-0.543 2.462-1.436 2.963-2.681 0.493-1.249 0.425-2.728-0.204-4.438v0c-0.585-1.589-1.39-2.699-2.417-3.332-1.018-0.628-2.149-0.713-3.394-0.255v0c-0.991 0.365-1.676 1.093-2.054 2.184-0.375 1.098-0.476 2.765-0.302 5.003 0.174 2.238 0.13 4.058-0.133 5.461-0.265 1.396-0.754 2.539-1.466 3.429-0.712 0.89-1.687 1.562-2.926 2.019v0c-1.983 0.73-3.852 0.541-5.609-0.566-1.754-1.101-3.107-2.944-4.059-5.531v0c-0.615-1.671-0.869-3.353-0.763-5.044 0.109-1.685 0.577-3.127 1.406-4.327 0.828-1.2 1.951-2.06 3.368-2.582v0l1.189 3.232c-1.474 0.543-2.44 1.515-2.898 2.917-0.449 1.406-0.34 3.018 0.329 4.836v0c0.627 1.703 1.452 2.878 2.477 3.526 1.027 0.654 2.138 0.761 3.333 0.321 1.195-0.44 1.965-1.199 2.311-2.279 0.346-1.08 0.431-2.839 0.254-5.278z" fill="#ffffff" data-fill-palette-color="primary"></path><path d="M31.107 189.151l-16.289 5.184-0.687-2.158 9.94-12.203-12.553 3.996-0.687-2.159 16.289-5.184 0.687 2.158-9.992 12.241 12.611-4.014z" fill="#ffffff" data-fill-palette-color="primary"></path><path d="M31.61 208.314l-0.974 0.481c-1.499 0.741-2.935 1.138-4.307 1.189-1.369 0.042-2.576-0.252-3.621-0.884-1.048-0.638-1.877-1.573-2.486-2.804v0c-0.597-1.208-0.83-2.426-0.697-3.655 0.13-1.22 0.616-2.359 1.46-3.419 0.844-1.059 1.983-1.955 3.419-2.687v0l1.111-0.55c1.469-0.726 2.895-1.111 4.279-1.152 1.381-0.048 2.603 0.246 3.667 0.884 1.066 0.644 1.898 1.57 2.495 2.777v0c0.606 1.226 0.843 2.454 0.71 3.683-0.127 1.226-0.628 2.373-1.505 3.441-0.874 1.059-2.057 1.958-3.551 2.696zM29.495 206.855l1.138-0.563c1.815-0.897 3.028-1.95 3.639-3.159 0.611-1.209 0.592-2.468-0.055-3.779v0c-0.633-1.281-1.617-2.048-2.952-2.303-1.331-0.248-2.865 0.042-4.601 0.87v0l-1.129 0.558c-1.76 0.87-2.961 1.925-3.602 3.164-0.641 1.239-0.641 2.508 0.001 3.806v0c0.645 1.305 1.621 2.08 2.928 2.326 1.307 0.245 2.851-0.061 4.633-0.92z" fill="#ffffff" data-fill-palette-color="primary"></path><path d="M48.31 218.691l-14.103 9.66-1.28-1.869 6.002-14.55-10.869 7.444-1.28-1.869 14.103-9.66 1.28 1.869-6.04 14.602 10.919-7.479z" fill="#ffffff" data-fill-palette-color="primary"></path><path d="M52.348 234.017l-1.357 1.24-5.001-5.474-4.477 4.09 5.81 6.359-1.357 1.24-7.331-8.024 12.62-11.53 7.249 7.933-1.373 1.254-5.727-6.269-4.057 3.707z" fill="#ffffff" data-fill-palette-color="primary"></path><path d="M64.921 247.314v0c-1.214-1.6-1.93-2.988-2.15-4.166-0.219-1.178 0.026-2.241 0.736-3.191v0c0.806-1.08 1.904-1.65 3.293-1.711 1.389-0.061 2.773 0.423 4.151 1.453v0c0.939 0.701 1.641 1.509 2.108 2.423 0.466 0.915 0.661 1.842 0.584 2.782-0.071 0.944-0.391 1.796-0.958 2.555v0l-1.815-1.355c0.62-0.83 0.843-1.678 0.67-2.543-0.174-0.865-0.741-1.656-1.701-2.373v0c-0.89-0.665-1.73-0.988-2.521-0.97-0.791 0.018-1.446 0.374-1.964 1.068v0c-0.417 0.559-0.534 1.207-0.35 1.945 0.184 0.738 0.727 1.692 1.627 2.863 0.9 1.171 1.527 2.188 1.879 3.052 0.358 0.867 0.499 1.674 0.423 2.42-0.076 0.746-0.373 1.467-0.891 2.161v0c-0.831 1.112-1.927 1.68-3.288 1.703-1.366 0.019-2.774-0.513-4.222-1.594v0c-0.939-0.701-1.681-1.534-2.228-2.501-0.548-0.975-0.808-1.939-0.781-2.891 0.025-0.962 0.336-1.841 0.931-2.639v0l1.823 1.362c-0.62 0.83-0.804 1.711-0.554 2.642 0.252 0.941 0.889 1.792 1.909 2.554v0c0.955 0.713 1.833 1.065 2.635 1.055 0.796-0.014 1.444-0.354 1.942-1.022 0.502-0.673 0.658-1.368 0.467-2.085-0.2-0.716-0.785-1.715-1.755-2.997z" fill="#ffffff" data-fill-palette-color="primary"></path><path d="M90.043 251.646l-8.386 14.896-1.974-1.112 3.877-6.886-7.514-4.23-3.877 6.886-1.965-1.106 8.386-14.896 1.965 1.106-3.607 6.408 7.514 4.23 3.607-6.408z" fill="#ffffff" data-fill-palette-color="primary"></path><path d="M103.472 265.326l-0.385 1.016c-0.592 1.564-1.372 2.833-2.341 3.806-0.973 0.964-2.057 1.571-3.252 1.821-1.201 0.248-2.445 0.128-3.731-0.358v0c-1.26-0.477-2.261-1.21-3.001-2.2-0.737-0.981-1.157-2.146-1.261-3.497-0.105-1.35 0.119-2.782 0.67-4.296v0l0.438-1.159c0.58-1.533 1.362-2.786 2.346-3.761 0.978-0.977 2.073-1.594 3.286-1.851 1.219-0.256 2.458-0.145 3.718 0.332v0c1.279 0.484 2.289 1.221 3.03 2.21 0.743 0.983 1.157 2.165 1.244 3.544 0.082 1.371-0.171 2.835-0.761 4.393zM100.93 265.7l0.45-1.187c0.717-1.894 0.887-3.491 0.51-4.792-0.377-1.301-1.249-2.21-2.617-2.728v0c-1.336-0.506-2.579-0.397-3.729 0.327-1.143 0.726-2.068 1.983-2.774 3.772v0l-0.446 1.178c-0.695 1.837-0.855 3.427-0.48 4.77 0.375 1.344 1.24 2.272 2.595 2.785v0c1.362 0.515 2.604 0.417 3.728-0.295 1.124-0.712 2.045-1.988 2.763-3.83z" fill="#ffffff" data-fill-palette-color="primary"></path><path d="M119.496 260.837l2.209 0.501-2.57 11.331c-0.363 1.57-1.15 2.746-2.362 3.527-1.204 0.775-2.658 1.036-4.364 0.78v0l-0.589-0.113c-1.829-0.415-3.174-1.237-4.034-2.466-0.86-1.23-1.101-2.708-0.723-4.434v0l2.577-11.362 2.17 0.492-2.562 11.292c-0.273 1.202-0.152 2.215 0.362 3.04 0.516 0.818 1.388 1.367 2.616 1.646v0c1.241 0.282 2.268 0.164 3.08-0.354 0.81-0.511 1.352-1.37 1.626-2.578v0z" fill="#ffffff" data-fill-palette-color="primary"></path><path d="M127.984 261.938l-1.437 15.188 8.069 0.764-0.173 1.83-10.324-0.977 1.61-17.018z" fill="#ffffff" data-fill-palette-color="primary"></path><path d="M144.394 279.525l-4.731 0.138-0.499-17.087 4.823-0.141c1.489-0.043 2.815 0.246 3.978 0.87 1.163 0.623 2.07 1.532 2.722 2.725 0.658 1.2 1.017 2.585 1.076 4.155v0l0.032 1.086c0.047 1.611-0.223 3.035-0.811 4.271-0.587 1.23-1.45 2.186-2.588 2.87-1.132 0.683-2.466 1.054-4.002 1.113zM144.102 264.291l-2.629 0.077 0.39 13.391 2.376-0.069c1.733-0.051 3.067-0.631 4.003-1.742 0.936-1.111 1.375-2.662 1.318-4.652v0l-0.029-1.005c-0.056-1.936-0.557-3.428-1.503-4.478-0.938-1.05-2.247-1.557-3.926-1.522z" fill="#ffffff" data-fill-palette-color="primary"></path><path d="M171.959 275.757l-5.782 1.325-3.819-16.662 5.455-1.25c1.802-0.413 3.247-0.352 4.336 0.184 1.083 0.544 1.793 1.548 2.128 3.013v0c0.177 0.772 0.113 1.509-0.191 2.211-0.305 0.702-0.802 1.306-1.492 1.812v0c0.955 0.045 1.778 0.36 2.468 0.945 0.683 0.587 1.137 1.368 1.361 2.345v0c0.342 1.492 0.126 2.778-0.648 3.858-0.775 1.074-2.047 1.813-3.816 2.219zM170.252 267.948l-3.663 0.839 1.375 6 3.634-0.833c1.023-0.234 1.767-0.686 2.232-1.356 0.473-0.664 0.603-1.462 0.389-2.392v0c-0.46-2.006-1.782-2.759-3.967-2.258zM164.971 261.728l1.214 5.297 3.317-0.76c0.964-0.221 1.677-0.638 2.141-1.252 0.47-0.615 0.611-1.335 0.422-2.16v0c-0.209-0.911-0.628-1.513-1.258-1.806-0.63-0.293-1.489-0.315-2.578-0.065v0z" fill="#ffffff" data-fill-palette-color="primary"></path><path d="M188.898 260.023l0.638 1.725-6.955 2.571 2.103 5.688 8.079-2.988 0.637 1.725-10.193 3.769-5.928-16.034 10.079-3.726 0.644 1.743-7.964 2.945 1.906 5.154z" fill="#ffffff" data-fill-palette-color="primary"></path><path d="M207.952 241.066l8.87 14.613-1.936 1.175-4.1-6.755-7.372 4.474 4.1 6.755-1.927 1.17-8.87-14.613 1.927-1.17 3.816 6.287 7.372-4.475-3.816-6.286z" fill="#ffffff" data-fill-palette-color="primary"></path><path d="M218.809 232.105l1.745-1.444 7.407 8.953c1.022 1.246 1.472 2.587 1.351 4.023-0.12 1.427-0.802 2.738-2.046 3.934v0l-0.448 0.397c-1.445 1.196-2.917 1.759-4.416 1.689-1.499-0.07-2.817-0.781-3.954-2.133v0l-7.426-8.977 1.714-1.418 7.381 8.922c0.786 0.95 1.662 1.472 2.629 1.569 0.963 0.091 1.93-0.265 2.9-1.068v0c0.981-0.811 1.514-1.696 1.6-2.655 0.09-0.953-0.26-1.907-1.05-2.863v0z" fill="#ffffff" data-fill-palette-color="primary"></path><path d="M232.081 218.075l12.625 11.525-1.527 1.673-15.537-2.52 9.73 8.881-1.527 1.673-12.625-11.525 1.527-1.673 15.595 2.547-9.775-8.923z" fill="#ffffff" data-fill-palette-color="primary"></path><path d="M248.643 208.841l5.203 3.492c0.367 0.948 0.431 1.965 0.191 3.052-0.234 1.09-0.735 2.206-1.501 3.347v0c-0.777 1.158-1.738 2.006-2.881 2.544-1.145 0.528-2.383 0.701-3.712 0.518-1.333-0.177-2.664-0.703-3.992-1.579v0l-1.232-0.826c-2.142-1.438-3.467-3.048-3.974-4.833-0.503-1.789-0.149-3.587 1.062-5.391v0c0.996-1.484 2.176-2.422 3.539-2.812 1.361-0.4 2.807-0.233 4.336 0.501v0l-1.256 1.872c-2.112-0.912-3.802-0.423-5.07 1.466v0c-0.841 1.254-1.041 2.498-0.597 3.734 0.449 1.239 1.506 2.422 3.172 3.548v0l1.155 0.776c1.597 1.072 3.11 1.557 4.54 1.456 1.426-0.095 2.556-0.764 3.389-2.007v0c0.472-0.703 0.804-1.368 0.998-1.997 0.197-0.634 0.225-1.247 0.085-1.839v0l-3.188-2.14-2.202 3.281-1.518-1.019z" fill="#ffffff" data-fill-palette-color="primary"></path><path d="M263.09 198.843l-7.842 0.318-1.755 3.619 6.224 3.018-0.988 2.038-15.382-7.459 2.469-5.091c0.842-1.736 1.882-2.88 3.12-3.431 1.244-0.548 2.619-0.457 4.124 0.273v0c0.963 0.467 1.672 1.131 2.127 1.991 0.462 0.864 0.646 1.841 0.554 2.932v0l8.276-0.445 0.127 0.062zM246.008 199.15l5.831 2.828 1.511-3.117c0.49-1.011 0.617-1.94 0.38-2.785-0.228-0.848-0.781-1.485-1.659-1.91v0c-0.95-0.461-1.816-0.531-2.596-0.209-0.78 0.321-1.434 1.017-1.96 2.086v0z" fill="#ffffff" data-fill-palette-color="primary"></path><path d="M249.635 186.259l9.542-1.521-6.75-6.927 0.803-2.43 8.326 8.956 6.056 2.001-0.707 2.141-6.057-2.001-12.026 2.24z" fill="#ffffff" data-fill-palette-color="primary"></path><path d="M2.03 144.752c0-5.562 4.509-10.071 10.07-10.07 5.562 0 10.071 4.509 10.071 10.07 0 5.562-4.509 10.071-10.071 10.071-5.562 0-10.071-4.509-10.07-10.071z" fill="#ffffff" data-fill-palette-color="primary"></path><path d="M257.737 144.752c0-5.562 4.509-10.071 10.07-10.07 5.562 0 10.071 4.509 10.071 10.07 0 5.562-4.509 10.071-10.071 10.071-5.562 0-10.071-4.509-10.07-10.071z" fill="#ffffff" data-fill-palette-color="primary"></path></g></svg></g></svg></g></svg></g></svg></g><defs></defs></svg><rect width="279.72" height="279.72" fill="none" stroke="none" visibility="hidden"></rect></g></svg></g></svg>