<svg version="1.1" id="Layer_1" xmlns="http://www.w3.org/2000/svg" xmlns:xlink="http://www.w3.org/1999/xlink" x="0px" y="0px"
	 width="100%" viewBox="0 0 515 486" enable-background="new 0 0 515 486" xml:space="preserve">
<path fill="#FFFFFE" opacity="1.000000" stroke="none" 
	d="
M516.000000,66.000000 
	C516.000000,184.355972 516.000000,302.711945 515.662231,421.237000 
	C514.959717,421.743378 514.369995,422.020966 514.262390,422.426514 
	C505.538513,455.293304 484.881012,476.259827 451.972961,485.103088 
	C451.512024,485.226959 451.318390,486.345612 451.000000,487.000000 
	C322.977356,487.000000 194.954727,487.000000 66.763031,486.662170 
	C66.256668,485.959686 65.979065,485.369995 65.573509,485.262390 
	C32.706669,476.538544 11.740255,455.880981 2.896937,422.972992 
	C2.773062,422.512024 1.654382,422.318390 1.000002,422.000000 
	C1.000000,303.644043 1.000000,185.288055 1.337810,66.763023 
	C2.040294,66.256645 2.629969,65.979057 2.737611,65.573517 
	C11.461477,32.706696 32.119015,11.740218 65.027046,2.896929 
	C65.487991,2.773061 65.681610,1.654378 66.000000,1.000000 
	C194.022644,1.000000 322.045288,1.000000 450.237000,1.337816 
	C450.743378,2.040310 451.020996,2.629997 451.426544,2.737642 
	C484.293335,11.461512 505.259766,32.119041 514.103088,65.027061 
	C514.226929,65.488007 515.345642,65.681610 516.000000,66.000000 
M401.500000,8.002237 
	C296.349518,8.002311 191.199036,7.951745 86.048607,8.026413 
	C41.571369,8.057997 8.083151,41.310402 8.037624,85.626930 
	C7.929090,191.277390 7.916177,296.928131 8.044460,402.578552 
	C8.097691,446.418182 41.468929,479.896393 85.254387,479.949463 
	C200.736633,480.089386 316.219330,480.082916 431.701172,479.820496 
	C440.211823,479.801178 449.092010,478.395111 457.157959,475.706421 
	C488.380005,465.298950 508.836517,437.113129 508.902985,404.122375 
	C509.118256,297.305817 508.981995,190.488541 508.974823,83.671555 
	C508.974731,82.339188 508.908142,81.005989 508.843750,79.674576 
	C507.139069,44.424015 478.799957,13.099823 443.906982,9.154902 
	C430.235962,7.609287 416.309906,8.319437 401.500000,8.002237 
z"/>
<path fill="#000000" opacity="1.000000" stroke="none" 
	d="
M65.531342,1.000000 
	C65.681610,1.654378 65.487991,2.773061 65.027046,2.896929 
	C32.119015,11.740218 11.461477,32.706696 2.737611,65.573517 
	C2.629969,65.979057 2.040294,66.256645 1.337810,66.296982 
	C1.000000,44.406502 1.000000,22.813002 1.000000,1.000000 
	C22.353727,1.000000 43.708206,1.000000 65.531342,1.000000 
z"/>
<path fill="#000000" opacity="1.000000" stroke="none" 
	d="
M451.468658,487.000000 
	C451.318390,486.345612 451.512024,485.226959 451.972961,485.103088 
	C484.881012,476.259827 505.538513,455.293304 514.262390,422.426514 
	C514.369995,422.020966 514.959717,421.743378 515.662231,421.703033 
	C516.000000,443.593506 516.000000,465.186981 516.000000,487.000000 
	C494.646271,487.000000 473.291809,487.000000 451.468658,487.000000 
z"/>
<path fill="#000000" opacity="1.000000" stroke="none" 
	d="
M1.000002,422.468658 
	C1.654382,422.318390 2.773062,422.512024 2.896937,422.972992 
	C11.740255,455.880981 32.706669,476.538544 65.573509,485.262390 
	C65.979065,485.369995 66.256668,485.959686 66.296997,486.662170 
	C44.406498,487.000000 22.812996,487.000000 1.000000,487.000000 
	C1.000000,465.646271 1.000000,444.291809 1.000002,422.468658 
z"/>
<path fill="#000000" opacity="1.000000" stroke="none" 
	d="
M516.000000,65.531342 
	C515.345642,65.681610 514.226929,65.488007 514.103088,65.027061 
	C505.259766,32.119041 484.293335,11.461512 451.426544,2.737642 
	C451.020996,2.629997 450.743378,2.040310 450.703033,1.337816 
	C472.593506,1.000000 494.187012,1.000000 516.000000,1.000000 
	C516.000000,22.353727 516.000000,43.708206 516.000000,65.531342 
z"/>
<path fill="#CC9B00" opacity="1.000000" stroke="none" 
	d="
M402.000000,8.002238 
	C416.309906,8.319437 430.235962,7.609287 443.906982,9.154902 
	C478.799957,13.099823 507.139069,44.424015 508.843750,79.674576 
	C508.908142,81.005989 508.974731,82.339188 508.974823,83.671555 
	C508.981995,190.488541 509.118256,297.305817 508.902985,404.122375 
	C508.836517,437.113129 488.380005,465.298950 457.157959,475.706421 
	C449.092010,478.395111 440.211823,479.801178 431.701172,479.820496 
	C316.219330,480.082916 200.736633,480.089386 85.254387,479.949463 
	C41.468929,479.896393 8.097691,446.418182 8.044460,402.578552 
	C7.916177,296.928131 7.929090,191.277390 8.037624,85.626930 
	C8.083151,41.310402 41.571369,8.057997 86.048607,8.026413 
	C191.199036,7.951745 296.349518,8.002311 402.000000,8.002238 
M151.685608,415.735199 
	C158.544632,412.774811 163.182419,407.693298 164.739746,400.438843 
	C166.904953,390.352753 167.051941,380.166595 158.338531,372.860443 
	C150.853561,366.584290 141.931854,366.852997 132.346176,370.236572 
	C117.130096,375.960999 116.234016,394.890259 120.407608,406.123749 
	C124.707008,417.695862 139.483948,419.557831 151.685608,415.735199 
M338.114868,415.330292 
	C345.081268,412.367828 347.394562,401.285797 344.793182,393.381317 
	C342.453278,386.271271 338.308868,383.579132 330.000061,383.847656 
	C323.424896,384.060181 318.327240,386.813049 316.058136,393.118256 
	C313.517365,400.178223 313.780853,407.196533 318.958557,413.204956 
	C323.480316,418.452179 329.252319,418.202026 335.839325,416.269501 
	C336.378326,416.028564 336.917328,415.787598 338.114868,415.330292 
M293.817627,318.113373 
	C303.212128,314.008667 312.606598,309.903931 322.716827,305.766083 
	C332.163574,301.565063 341.610321,297.364044 351.797424,293.062134 
	C362.600250,289.318420 372.780548,284.059296 376.199463,272.460846 
	C378.474792,264.741882 377.922394,256.189392 378.823486,247.088043 
	C378.738220,236.708694 378.652954,226.329361 378.720978,215.134369 
	C378.691498,208.759766 378.662018,202.385147 378.818878,195.089493 
	C378.759216,189.397034 378.699554,183.704590 378.826019,177.094376 
	C378.763428,172.392929 378.700867,167.691467 378.819000,162.070999 
	C378.833252,145.256882 378.760712,128.441849 378.938538,111.629456 
	C378.972137,108.452881 377.899811,106.883698 375.034637,105.712952 
	C367.517059,102.641212 360.152893,99.195915 352.656647,96.069595 
	C343.490936,92.247017 334.252991,88.597740 324.739532,84.257095 
	C305.743927,75.956047 286.787079,67.564018 267.717621,59.436172 
	C264.204803,57.938919 260.235931,57.511551 255.742935,56.590794 
	C238.473907,63.989098 221.204880,71.387398 203.200974,78.917656 
	C188.918121,85.045113 174.610275,91.115196 160.361557,97.321007 
	C151.466583,101.195076 143.071136,105.719376 139.498871,116.523643 
	C138.710831,121.238472 137.254684,125.950943 137.237961,130.668503 
	C137.068909,178.424576 137.285904,226.182541 136.945724,273.936798 
	C136.902878,279.951141 139.156387,282.315063 144.114334,284.382874 
	C159.259445,290.699463 174.247070,297.393860 189.290955,303.952789 
	C203.183334,310.009674 217.069244,316.081451 231.330078,322.765808 
	C238.279877,325.638855 245.238480,328.490814 252.175903,331.393402 
	C255.919510,332.959656 259.617920,334.234436 263.905365,331.104767 
	C265.293762,330.460205 266.682159,329.815643 268.804260,329.052826 
	C276.890167,325.424774 284.976044,321.796692 293.817627,318.113373 
M255.583160,378.429565 
	C254.132721,386.747711 256.337708,390.993378 263.904907,394.282867 
	C266.334503,395.339020 268.876221,396.143219 271.281403,397.248260 
	C276.874817,399.817993 278.543823,402.872803 277.436127,408.167511 
	C276.448151,412.889923 272.986176,415.437012 267.590332,415.411285 
	C261.771149,415.383545 258.101044,412.719635 256.860229,407.716553 
	C256.526337,406.370361 255.974014,405.078339 255.521973,403.761444 
	C252.798431,414.401123 253.496811,416.165649 264.396790,417.142944 
	C265.387787,417.231750 266.393463,417.169342 267.392090,417.158966 
	C275.980377,417.069763 280.758484,413.747528 282.284058,406.810120 
	C283.839081,399.738647 281.046051,394.655273 273.396790,390.964081 
	C270.267609,389.454041 266.949707,388.332703 263.831970,386.801819 
	C259.695312,384.770630 259.060211,381.160706 259.969482,377.055725 
	C260.843231,373.111176 263.582275,371.882172 267.341339,371.813324 
	C273.628784,371.698151 278.790131,373.145966 280.308990,380.778717 
	C281.590363,376.753296 282.858215,372.715515 279.145020,370.647675 
	C271.293640,366.275391 259.445404,367.172119 255.583160,378.429565 
M174.671097,384.188477 
	C172.827148,384.436798 170.983200,384.685120 169.139252,384.933411 
	C174.863052,385.170227 175.206207,388.797333 175.101822,393.025269 
	C174.978546,398.017975 175.086319,403.018097 175.170425,408.013763 
	C175.302612,415.864868 178.619034,418.742371 186.232300,416.879761 
	C189.636215,416.046967 192.716980,413.893188 195.938599,412.326385 
	C199.362167,418.806915 199.450623,418.840912 203.740753,415.706268 
	C197.774719,405.662170 203.036072,394.433472 200.404724,384.085602 
	C196.824844,384.354004 193.459702,384.606323 190.094543,384.858612 
	C189.946152,385.325073 189.797775,385.791504 189.649384,386.257965 
	C196.037064,385.678497 196.266464,389.428009 196.031052,393.769836 
	C195.823914,397.590332 195.993622,401.430939 195.986328,405.262665 
	C195.976532,410.408325 192.591125,413.076202 186.014893,413.131989 
	C181.264191,413.172272 180.038010,411.659607 180.017822,405.596680 
	C179.994202,398.505157 180.012299,391.413452 180.012299,384.164215 
	C178.194931,384.164215 176.887711,384.164215 174.671097,384.188477 
M400.706512,392.909821 
	C398.792664,398.810394 396.878815,404.710968 394.498901,412.048523 
	C390.746521,402.687408 387.589294,394.810944 384.350128,386.730133 
	C386.769897,386.248047 388.252502,385.952667 389.735138,385.657257 
	C389.703430,385.423767 389.671722,385.190247 389.640015,384.956726 
	C385.151337,384.956726 380.662659,384.956726 376.264709,384.956726 
	C377.684448,386.992218 379.188843,388.553406 380.001099,390.416321 
	C383.577759,398.619965 387.073456,406.864838 390.297211,415.211121 
	C390.893341,416.754547 390.743042,419.283783 389.833405,420.588379 
	C386.232758,425.752502 382.193420,430.610748 378.636383,435.172424 
	C385.776184,434.741760 386.027405,434.851074 389.201874,427.554474 
	C393.693481,417.230530 397.707245,406.699738 402.054962,396.311646 
	C403.718750,392.336334 405.740143,388.510712 407.383301,385.067902 
	C404.615662,385.067902 400.666718,385.067902 396.717743,385.067902 
	C402.002472,385.337189 401.416260,388.730988 400.706512,392.909821 
M301.421448,387.573181 
	C303.581970,387.568970 305.761932,387.730591 307.893677,387.480865 
	C308.775970,387.377502 309.555084,386.393097 310.381104,385.809357 
	C309.529266,385.268188 308.701508,384.311066 307.821350,384.260223 
	C304.579590,384.072906 301.320435,384.185852 297.716125,384.185852 
	C297.716125,382.009460 297.716125,380.144165 297.716125,377.294617 
	C294.204559,380.249908 291.403625,382.607147 289.753448,383.995911 
	C290.915771,387.648804 292.188782,389.997894 292.320770,392.409454 
	C292.592285,397.370087 292.158844,402.364807 292.196320,407.344177 
	C292.226044,411.290344 291.769745,415.589233 296.811554,417.254333 
	C301.190460,418.700562 308.034210,416.395264 310.639984,412.457611 
	C308.743103,412.863281 307.007172,413.319519 305.243042,413.596222 
	C299.542145,414.490356 297.647522,412.882202 297.584320,407.037659 
	C297.526825,401.720001 297.401672,396.391174 297.707916,391.090454 
	C297.778259,389.872803 299.491577,388.750092 301.421448,387.573181 
M223.745911,389.789948 
	C226.677841,390.233246 229.609772,390.676514 233.427658,391.253754 
	C233.189377,389.661255 233.659149,386.489288 232.396286,385.475433 
	C227.457321,381.510101 224.213730,386.997681 220.245239,388.705597 
	C220.062775,386.874695 219.905777,385.299316 219.741852,383.654541 
	C215.923904,383.995819 212.518188,384.300262 209.617538,384.559570 
	C211.546051,386.254730 214.608841,387.662476 214.699722,389.241241 
	C215.185303,397.678619 214.928650,406.158722 214.928650,414.553955 
	C212.928589,414.930847 211.298172,415.238098 209.667755,415.545349 
	C209.710342,415.802551 209.752945,416.059723 209.795547,416.316925 
	C215.945435,416.316925 222.095322,416.316925 228.245224,416.316925 
	C228.246872,415.985535 228.248520,415.654144 228.250168,415.322723 
	C225.705338,415.091095 223.160522,414.859467 220.026138,414.574188 
	C220.026138,407.131866 219.915527,400.002869 220.152771,392.885468 
	C220.186005,391.888794 221.925705,390.949005 223.745911,389.789948 
M352.512207,386.156097 
	C353.652618,387.202454 355.747162,388.217957 355.782135,389.300049 
	C356.055542,397.757629 355.933472,406.227966 355.933472,414.615601 
	C353.888062,414.947815 352.257324,415.212677 350.626587,415.477509 
	C350.677795,415.823395 350.729004,416.169250 350.780212,416.515137 
	C356.929138,416.515137 363.078094,416.515137 369.227020,416.515137 
	C369.259644,416.103271 369.292236,415.691376 369.324860,415.279510 
	C366.845856,415.104340 364.366852,414.929169 361.012238,414.692139 
	C361.012238,408.322968 361.003540,402.050537 361.014923,395.778137 
	C361.024384,390.576141 364.973602,387.916931 369.839874,389.916443 
	C371.118317,390.441742 372.238464,391.352264 374.930115,393.007629 
	C374.228851,389.467285 374.548981,386.304840 373.240814,385.332092 
	C368.388489,381.723846 365.252869,386.823120 361.247894,388.749542 
	C361.108917,386.992767 360.986481,385.444885 360.887634,384.195404 
	C357.625702,384.195404 354.681274,384.187164 351.739777,384.275940 
	C351.696777,384.277252 351.690277,385.487823 352.512207,386.156097 
z"/>
<path fill="#05AD99" opacity="1.000000" stroke="none" 
	d="
M230.957977,322.146667 
	C217.069244,316.081451 203.183334,310.009674 189.290955,303.952789 
	C174.247070,297.393860 159.259445,290.699463 144.114334,284.382874 
	C139.156387,282.315063 136.902878,279.951141 136.945724,273.936798 
	C137.285904,226.182541 137.068909,178.424576 137.237961,130.668503 
	C137.254684,125.950943 138.710831,121.238472 140.080658,116.408035 
	C152.114075,122.868225 163.632477,129.332108 174.972015,136.095825 
	C177.932922,137.861908 180.337204,140.561157 182.551453,142.904022 
	C180.170929,143.091095 178.236069,143.205978 176.357697,143.317520 
	C176.357697,183.439438 176.357697,223.267532 176.357697,263.427551 
	C182.502701,262.670502 188.251175,261.962311 194.007736,261.613159 
	C195.178345,264.316071 195.931244,267.006897 197.572754,268.945068 
	C205.586044,278.406586 213.836548,287.667145 221.725922,297.245361 
	C221.878372,299.810364 221.916931,302.293854 222.812195,304.415863 
	C225.339233,310.405518 228.217880,316.246887 230.957977,322.146667 
z"/>
<path fill="#04AA97" opacity="1.000000" stroke="none" 
	d="
M256.477570,56.590363 
	C260.235931,57.511551 264.204803,57.938919 267.717621,59.436172 
	C286.787079,67.564018 305.743927,75.956047 324.878815,85.042343 
	C325.011932,96.563164 325.005768,107.298737 324.578613,118.050064 
	C319.538452,117.762917 314.896179,117.006302 310.304321,117.240082 
	C295.023010,118.018059 288.201904,125.417259 288.154633,140.627243 
	C288.125244,150.084320 288.015991,159.541138 287.563660,169.004974 
	C281.460602,171.514694 274.354034,171.707870 271.337708,178.783035 
	C271.016602,179.536346 269.040161,179.583969 267.687134,179.519226 
	C267.510559,176.586777 267.668640,174.074020 267.408356,171.605362 
	C266.792725,165.766281 268.071167,160.850754 273.113342,157.213364 
	C274.113678,156.491714 274.850952,154.786835 274.913940,153.496552 
	C275.131622,149.036697 274.997772,144.559708 274.997772,138.998947 
	C269.834534,141.212173 265.378723,143.271347 260.798248,145.000351 
	C259.303223,145.564713 257.102234,145.947723 255.873550,145.257538 
	C247.251816,140.414429 237.935822,137.832932 228.225296,138.252335 
	C215.844437,138.787079 203.511948,140.441864 191.115601,141.108337 
	C191.049179,131.945343 190.964798,123.287437 191.026367,114.630569 
	C191.060516,109.829674 192.634216,108.401131 197.062637,109.948448 
	C205.619858,112.938400 214.001709,116.429077 222.469193,119.678429 
	C223.843155,120.205681 225.272034,120.887917 226.695450,120.938553 
	C234.366180,121.211456 241.808746,122.081985 248.835068,125.682144 
	C251.268906,126.929207 254.425583,126.765587 257.996338,127.372887 
	C257.996338,115.885132 257.996338,105.440887 257.996979,94.528336 
	C258.000061,83.363609 258.072723,72.666306 257.936279,61.971657 
	C257.913300,60.171982 256.986664,58.383835 256.477570,56.590363 
z"/>
<path fill="#06B29E" opacity="1.000000" stroke="none" 
	d="
M257.996338,94.996643 
	C257.996338,105.440887 257.996338,115.885132 257.996338,127.372887 
	C254.425583,126.765587 251.268906,126.929207 248.835068,125.682144 
	C241.808746,122.081985 234.366180,121.211456 226.695450,120.938553 
	C225.272034,120.887917 223.843155,120.205681 222.469193,119.678429 
	C214.001709,116.429077 205.619858,112.938400 197.062637,109.948448 
	C192.634216,108.401131 191.060516,109.829674 191.026367,114.630569 
	C190.964798,123.287437 191.049179,131.945343 190.756378,141.215210 
	C187.959137,142.162338 185.478134,142.497086 182.997131,142.831833 
	C180.337204,140.561157 177.932922,137.861908 174.972015,136.095825 
	C163.632477,129.332108 152.114075,122.868225 140.349518,116.153595 
	C143.071136,105.719376 151.466583,101.195076 160.361557,97.321007 
	C174.610275,91.115196 188.918121,85.045113 203.629776,79.221100 
	C207.209915,81.016083 210.236282,82.925491 213.538345,83.912987 
	C220.627228,86.032936 227.845963,87.727303 235.034485,89.502968 
	C242.674622,91.390182 250.341263,93.169960 257.996338,94.996643 
z"/>
<path fill="#05AD99" opacity="1.000000" stroke="none" 
	d="
M324.999603,118.034302 
	C325.005768,107.298737 325.011932,96.563164 325.032166,85.350555 
	C334.252991,88.597740 343.490936,92.247017 352.656647,96.069595 
	C360.152893,99.195915 367.517059,102.641212 375.034637,105.712952 
	C377.899811,106.883698 378.972137,108.452881 378.938538,111.629456 
	C378.760712,128.441849 378.833252,145.256882 378.358276,162.531006 
	C376.187408,162.453537 374.437897,162.016266 372.773499,161.362259 
	C362.200073,157.207520 351.934113,152.002228 340.103027,151.530060 
	C340.025024,147.917740 339.798828,144.752487 340.041931,141.623703 
	C340.950165,129.933792 336.522583,121.747841 324.999603,118.034302 
z"/>
<path fill="#28C7B5" opacity="1.000000" stroke="none" 
	d="
M351.057068,293.163025 
	C341.610321,297.364044 332.163574,301.565063 322.269318,305.431152 
	C317.361633,303.726593 312.783508,302.648254 308.475281,300.903534 
	C304.368927,299.240570 299.443573,298.321106 298.144531,292.697693 
	C301.520325,288.930817 304.749115,285.463837 308.306458,282.138092 
	C313.826874,283.848328 319.062164,286.878265 324.202911,286.725525 
	C343.316559,286.157684 356.110657,267.705627 348.469543,249.451126 
	C347.082916,246.138489 343.433746,243.772903 340.753754,240.509094 
	C340.734711,234.700897 340.790985,229.353699 341.230225,224.008514 
	C342.863831,224.407440 344.265900,224.562531 345.342834,225.236893 
	C366.946442,238.764572 371.381439,268.202942 354.230682,287.367004 
	C352.800140,288.965485 352.097748,291.215637 351.057068,293.163025 
z"/>
<path fill="#23C3B0" opacity="1.000000" stroke="none" 
	d="
M351.427246,293.112579 
	C352.097748,291.215637 352.800140,288.965485 354.230682,287.367004 
	C371.381439,268.202942 366.946442,238.764572 345.342834,225.236893 
	C344.265900,224.562531 342.863831,224.407440 341.145020,223.587265 
	C340.544098,221.074036 340.411316,218.984085 340.312225,217.424225 
	C335.028748,222.156799 330.030640,226.633743 325.019409,230.634186 
	C325.008942,222.107422 325.011597,214.057175 325.427185,206.013947 
	C328.918243,206.524948 332.038025,206.851349 335.067810,207.561615 
	C355.235138,212.289337 368.340607,224.876953 375.586731,244.026886 
	C376.153473,245.524689 377.598694,246.690094 378.635651,248.009979 
	C377.922394,256.189392 378.474792,264.741882 376.199463,272.460846 
	C372.780548,284.059296 362.600250,289.318420 351.427246,293.112579 
z"/>
<path fill="#0AAC99" opacity="1.000000" stroke="none" 
	d="
M231.144028,322.456238 
	C228.217880,316.246887 225.339233,310.405518 222.812195,304.415863 
	C221.916931,302.293854 221.878372,299.810364 222.057526,297.393311 
	C224.120438,297.899841 225.574493,298.505005 227.781357,299.423492 
	C227.781357,296.960205 228.034515,295.326782 227.741226,293.798218 
	C225.435425,281.780273 227.228546,269.925415 229.421997,258.004272 
	C234.623047,259.139526 239.399429,260.333038 244.122467,261.971161 
	C241.431549,272.017365 241.794067,281.823822 243.441803,291.385773 
	C246.041763,306.473785 252.665512,319.852295 263.229187,331.122040 
	C259.617920,334.234436 255.919510,332.959656 252.175903,331.393402 
	C245.238480,328.490814 238.279877,325.638855 231.144028,322.456238 
z"/>
<path fill="#0FAF9C" opacity="1.000000" stroke="none" 
	d="
M263.567261,331.113403 
	C252.665512,319.852295 246.041763,306.473785 243.441803,291.385773 
	C241.794067,281.823822 241.431549,272.017365 244.492188,261.996704 
	C249.419403,264.736176 253.923523,267.894653 258.473907,271.085602 
	C259.919128,270.013153 261.355042,268.947632 263.109253,268.139526 
	C263.576355,269.850006 264.007751,271.338654 263.829651,272.750458 
	C262.266907,285.138336 264.989014,296.593536 271.718658,306.964600 
	C273.997803,310.476929 275.534454,313.831848 274.854858,318.302551 
	C272.495056,322.126617 270.282806,325.648834 268.070557,329.171082 
	C266.682159,329.815643 265.293762,330.460205 263.567261,331.113403 
z"/>
<path fill="#08B8A3" opacity="1.000000" stroke="none" 
	d="
M257.996979,94.528336 
	C250.341263,93.169960 242.674622,91.390182 235.034485,89.502968 
	C227.845963,87.727303 220.627228,86.032936 213.538345,83.912987 
	C210.236282,82.925491 207.209915,81.016083 203.997223,79.155128 
	C221.204880,71.387398 238.473907,63.989098 256.110260,56.590576 
	C256.986664,58.383835 257.913300,60.171982 257.936279,61.971657 
	C258.072723,72.666306 258.000061,83.363609 257.996979,94.528336 
z"/>
<path fill="#1FBEAA" opacity="1.000000" stroke="none" 
	d="
M378.729553,247.549011 
	C377.598694,246.690094 376.153473,245.524689 375.586731,244.026886 
	C368.340607,224.876953 355.235138,212.289337 335.067810,207.561615 
	C332.038025,206.851349 328.918243,206.524948 325.419678,205.661957 
	C324.985748,204.833939 324.972229,204.364960 325.094269,203.593597 
	C328.989594,199.806671 332.749390,196.322083 336.892578,192.977921 
	C349.824829,196.401413 361.258728,201.719711 370.788513,210.807693 
	C373.002625,212.919144 375.954987,214.256470 378.567688,215.950012 
	C378.652954,226.329361 378.738220,236.708694 378.729553,247.549011 
z"/>
<path fill="#17BAA7" opacity="1.000000" stroke="none" 
	d="
M378.644318,215.542191 
	C375.954987,214.256470 373.002625,212.919144 370.788513,210.807693 
	C361.258728,201.719711 349.824829,196.401413 337.037476,192.632843 
	C340.858887,188.515259 339.779053,183.566467 340.540710,179.049454 
	C353.007507,182.313141 364.466339,186.864380 374.473877,194.625717 
	C375.562988,195.470398 377.232330,195.566971 378.632538,196.010544 
	C378.662018,202.385147 378.691498,208.759766 378.644318,215.542191 
z"/>
<path fill="#12B6A2" opacity="1.000000" stroke="none" 
	d="
M378.725708,195.550018 
	C377.232330,195.566971 375.562988,195.470398 374.473877,194.625717 
	C364.466339,186.864380 353.007507,182.313141 340.474182,178.589264 
	C340.079468,173.713593 340.123505,169.353455 340.587280,164.995300 
	C352.864655,165.948654 363.242462,171.137222 373.635193,176.321747 
	C375.196106,177.100403 376.966461,177.459137 378.639893,178.012131 
	C378.699554,183.704590 378.759216,189.397034 378.725708,195.550018 
z"/>
<path fill="#0EB19C" opacity="1.000000" stroke="none" 
	d="
M378.732971,177.553253 
	C376.966461,177.459137 375.196106,177.100403 373.635193,176.321747 
	C363.242462,171.137222 352.864655,165.948654 340.520142,164.536713 
	C340.078918,160.048737 340.124603,156.021317 340.170288,151.993881 
	C351.934113,152.002228 362.200073,157.207520 372.773499,161.362259 
	C374.437897,162.016266 376.187408,162.453537 378.267944,162.990509 
	C378.700867,167.691467 378.763428,172.392929 378.732971,177.553253 
z"/>
<path fill="#070500" opacity="1.000000" stroke="none" 
	d="
M255.738068,378.060669 
	C259.445404,367.172119 271.293640,366.275391 279.145020,370.647675 
	C282.858215,372.715515 281.590363,376.753296 280.308990,380.778717 
	C278.790131,373.145966 273.628784,371.698151 267.341339,371.813324 
	C263.582275,371.882172 260.843231,373.111176 259.969482,377.055725 
	C259.060211,381.160706 259.695312,384.770630 263.831970,386.801819 
	C266.949707,388.332703 270.267609,389.454041 273.396790,390.964081 
	C281.046051,394.655273 283.839081,399.738647 282.284058,406.810120 
	C280.758484,413.747528 275.980377,417.069763 267.392090,417.158966 
	C266.393463,417.169342 265.387787,417.231750 264.396790,417.142944 
	C253.496811,416.165649 252.798431,414.401123 255.521973,403.761444 
	C255.974014,405.078339 256.526337,406.370361 256.860229,407.716553 
	C258.101044,412.719635 261.771149,415.383545 267.590332,415.411285 
	C272.986176,415.437012 276.448151,412.889923 277.436127,408.167511 
	C278.543823,402.872803 276.874817,399.817993 271.281403,397.248260 
	C268.876221,396.143219 266.334503,395.339020 263.904907,394.282867 
	C256.337708,390.993378 254.132721,386.747711 255.738068,378.060669 
z"/>
<path fill="#21C1AE" opacity="1.000000" stroke="none" 
	d="
M297.997559,292.997528 
	C299.443573,298.321106 304.368927,299.240570 308.475281,300.903534 
	C312.783508,302.648254 317.361633,303.726593 321.911438,305.447693 
	C312.606598,309.903931 303.212128,314.008667 293.392761,317.781372 
	C289.977722,314.632141 286.987549,311.814911 284.144440,308.697083 
	C287.530090,304.266327 290.768707,300.136169 294.291748,295.870972 
	C295.716614,294.823151 296.857086,293.910339 297.997559,292.997528 
z"/>
<path fill="#060400" opacity="1.000000" stroke="none" 
	d="
M175.125793,384.176331 
	C176.887711,384.164215 178.194931,384.164215 180.012299,384.164215 
	C180.012299,391.413452 179.994202,398.505157 180.017822,405.596680 
	C180.038010,411.659607 181.264191,413.172272 186.014893,413.131989 
	C192.591125,413.076202 195.976532,410.408325 195.986328,405.262665 
	C195.993622,401.430939 195.823914,397.590332 196.031052,393.769836 
	C196.266464,389.428009 196.037064,385.678497 189.649384,386.257965 
	C189.797775,385.791504 189.946152,385.325073 190.094543,384.858612 
	C193.459702,384.606323 196.824844,384.354004 200.404724,384.085602 
	C203.036072,394.433472 197.774719,405.662170 203.740753,415.706268 
	C199.450623,418.840912 199.362167,418.806915 195.941498,412.332642 
	C192.716980,413.893188 189.636215,416.046967 186.232300,416.879761 
	C178.619034,418.742371 175.302612,415.864868 175.170425,408.013763 
	C175.086319,403.018097 174.978546,398.017975 175.101822,393.025269 
	C175.206207,388.797333 174.863052,385.170227 169.139252,384.933411 
	C170.983200,384.685120 172.827148,384.436798 175.125793,384.176331 
z"/>
<path fill="#060400" opacity="1.000000" stroke="none" 
	d="
M400.797363,392.498535 
	C401.416260,388.730988 402.002472,385.337189 396.717743,385.067902 
	C400.666718,385.067902 404.615662,385.067902 407.383301,385.067902 
	C405.740143,388.510712 403.718750,392.336334 402.054962,396.311646 
	C397.707245,406.699738 393.693481,417.230530 389.201874,427.554474 
	C386.027405,434.851074 385.776184,434.741760 378.636383,435.172424 
	C382.193420,430.610748 386.232758,425.752502 389.833405,420.588379 
	C390.743042,419.283783 390.893341,416.754547 390.297211,415.211121 
	C387.073456,406.864838 383.577759,398.619965 380.001099,390.416321 
	C379.188843,388.553406 377.684448,386.992218 376.264709,384.956726 
	C380.662659,384.956726 385.151337,384.956726 389.640015,384.956726 
	C389.671722,385.190247 389.703430,385.423767 389.735138,385.657257 
	C388.252502,385.952667 386.769897,386.248047 384.350128,386.730133 
	C387.589294,394.810944 390.746521,402.687408 394.498901,412.048523 
	C396.878815,404.710968 398.792664,398.810394 400.797363,392.498535 
z"/>
<path fill="#070500" opacity="1.000000" stroke="none" 
	d="
M335.240692,416.312561 
	C329.252319,418.202026 323.480316,418.452179 318.958557,413.204956 
	C313.780853,407.196533 313.517365,400.178223 316.058136,393.118256 
	C318.327240,386.813049 323.424896,384.060181 330.000061,383.847656 
	C338.308868,383.579132 342.453278,386.271271 344.793182,393.381317 
	C347.394562,401.285797 345.081268,412.367828 337.644684,415.261719 
	C337.174500,415.193146 336.874603,414.854828 337.011414,414.534180 
	C341.903656,407.484222 342.169586,397.621918 337.763947,391.380524 
	C335.077942,387.575256 329.162170,385.125061 325.093170,386.449188 
	C320.364471,387.987976 320.000946,392.132568 320.031403,396.186615 
	C320.054840,399.308472 320.140594,402.520355 320.871002,405.528961 
	C322.827332,413.586853 326.449310,416.080811 334.892273,415.859680 
	C335.009186,416.010040 335.240692,416.312561 335.240692,416.312561 
z"/>
<path fill="#070500" opacity="1.000000" stroke="none" 
	d="
M133.040009,370.138245 
	C141.931854,366.852997 150.853561,366.584290 158.338531,372.860443 
	C167.051941,380.166595 166.904953,390.352753 164.739746,400.438843 
	C163.182419,407.693298 158.544632,412.774811 151.343140,415.475464 
	C151.010559,414.860138 151.020462,414.504547 151.245438,413.883484 
	C158.949509,408.522980 160.077133,400.882263 160.011276,392.660431 
	C159.881973,376.513977 148.494751,367.667206 132.996689,371.510925 
	C133.013260,370.870239 133.026627,370.504242 133.040009,370.138245 
z"/>
<path fill="#070500" opacity="1.000000" stroke="none" 
	d="
M300.935120,387.578430 
	C299.491577,388.750092 297.778259,389.872803 297.707916,391.090454 
	C297.401672,396.391174 297.526825,401.720001 297.584320,407.037659 
	C297.647522,412.882202 299.542145,414.490356 305.243042,413.596222 
	C307.007172,413.319519 308.743103,412.863281 310.639984,412.457611 
	C308.034210,416.395264 301.190460,418.700562 296.811554,417.254333 
	C291.769745,415.589233 292.226044,411.290344 292.196320,407.344177 
	C292.158844,402.364807 292.592285,397.370087 292.320770,392.409454 
	C292.188782,389.997894 290.915771,387.648804 289.753448,383.995911 
	C291.403625,382.607147 294.204559,380.249908 297.716125,377.294617 
	C297.716125,380.144165 297.716125,382.009460 297.716125,384.185852 
	C301.320435,384.185852 304.579590,384.072906 307.821350,384.260223 
	C308.701508,384.311066 309.529266,385.268188 310.381104,385.809357 
	C309.555084,386.393097 308.775970,387.377502 307.893677,387.480865 
	C305.761932,387.730591 303.581970,387.568970 300.935120,387.578430 
z"/>
<path fill="#060400" opacity="1.000000" stroke="none" 
	d="
M151.030365,414.148956 
	C151.020462,414.504547 151.010559,414.860138 150.998825,415.482544 
	C139.483948,419.557831 124.707008,417.695862 120.407608,406.123749 
	C116.234016,394.890259 117.130096,375.960999 132.693085,370.187408 
	C133.026627,370.504242 133.013260,370.870239 132.716003,371.713806 
	C124.363258,377.732697 123.794853,386.057831 124.003761,394.716248 
	C124.419434,411.943787 137.876312,419.708099 151.030365,414.148956 
z"/>
<path fill="#060400" opacity="1.000000" stroke="none" 
	d="
M223.310699,389.886414 
	C221.925705,390.949005 220.186005,391.888794 220.152771,392.885468 
	C219.915527,400.002869 220.026138,407.131866 220.026138,414.574188 
	C223.160522,414.859467 225.705338,415.091095 228.250168,415.322723 
	C228.248520,415.654144 228.246872,415.985535 228.245224,416.316925 
	C222.095322,416.316925 215.945435,416.316925 209.795547,416.316925 
	C209.752945,416.059723 209.710342,415.802551 209.667755,415.545349 
	C211.298172,415.238098 212.928589,414.930847 214.928650,414.553955 
	C214.928650,406.158722 215.185303,397.678619 214.699722,389.241241 
	C214.608841,387.662476 211.546051,386.254730 209.617538,384.559570 
	C212.518188,384.300262 215.923904,383.995819 219.741852,383.654541 
	C219.905777,385.299316 220.062775,386.874695 220.245239,388.705597 
	C224.213730,386.997681 227.457321,381.510101 232.396286,385.475433 
	C233.659149,386.489288 233.189377,389.661255 233.427658,391.253754 
	C229.609772,390.676514 226.677841,390.233246 223.310699,389.886414 
z"/>
<path fill="#060400" opacity="1.000000" stroke="none" 
	d="
M352.089478,386.145081 
	C351.690277,385.487823 351.696777,384.277252 351.739777,384.275940 
	C354.681274,384.187164 357.625702,384.195404 360.887634,384.195404 
	C360.986481,385.444885 361.108917,386.992767 361.247894,388.749542 
	C365.252869,386.823120 368.388489,381.723846 373.240814,385.332092 
	C374.548981,386.304840 374.228851,389.467285 374.930115,393.007629 
	C372.238464,391.352264 371.118317,390.441742 369.839874,389.916443 
	C364.973602,387.916931 361.024384,390.576141 361.014923,395.778137 
	C361.003540,402.050537 361.012238,408.322968 361.012238,414.692139 
	C364.366852,414.929169 366.845856,415.104340 369.324860,415.279510 
	C369.292236,415.691376 369.259644,416.103271 369.227020,416.515137 
	C363.078094,416.515137 356.929138,416.515137 350.780212,416.515137 
	C350.729004,416.169250 350.677795,415.823395 350.626587,415.477509 
	C352.257324,415.212677 353.888062,414.947815 355.933472,414.615601 
	C355.933472,406.227966 356.055542,397.757629 355.782135,389.300049 
	C355.747162,388.217957 353.652618,387.202454 352.089478,386.145081 
z"/>
<path fill="#17BAA7" opacity="1.000000" stroke="none" 
	d="
M283.997406,308.997650 
	C286.987549,311.814911 289.977722,314.632141 293.014893,317.809021 
	C284.976044,321.796692 276.890167,325.424774 268.437408,329.111938 
	C270.282806,325.648834 272.495056,322.126617 275.157104,318.154877 
	C278.403748,314.802826 281.200592,311.900238 283.997406,308.997650 
z"/>
<path fill="#070500" opacity="1.000000" stroke="none" 
	d="
M337.315430,415.369873 
	C336.917328,415.787598 336.378326,416.028564 335.540009,416.291016 
	C335.240692,416.312561 335.009186,416.010040 335.072144,415.621490 
	C335.714905,415.106903 336.294769,414.980865 336.874603,414.854828 
	C336.874603,414.854828 337.174500,415.193146 337.315430,415.369873 
z"/>
<path fill="#FCFEFE" opacity="1.000000" stroke="none" 
	d="
M262.790955,267.882111 
	C261.355042,268.947632 259.919128,270.013153 258.473907,271.085602 
	C253.923523,267.894653 249.419403,264.736176 244.545547,261.552124 
	C239.399429,260.333038 234.623047,259.139526 228.962219,257.918030 
	C216.718384,259.011383 205.359009,260.132751 193.999634,261.254120 
	C188.251175,261.962311 182.502701,262.670502 176.357697,263.427551 
	C176.357697,223.267532 176.357697,183.439438 176.357697,143.317520 
	C178.236069,143.205978 180.170929,143.091095 182.551453,142.904022 
	C185.478134,142.497086 187.959137,142.162338 190.799377,141.720718 
	C203.511948,140.441864 215.844437,138.787079 228.225296,138.252335 
	C237.935822,137.832932 247.251816,140.414429 255.873550,145.257538 
	C257.102234,145.947723 259.303223,145.564713 260.798248,145.000351 
	C265.378723,143.271347 269.834534,141.212173 274.997772,138.998947 
	C274.997772,144.559708 275.131622,149.036697 274.913940,153.496552 
	C274.850952,154.786835 274.113678,156.491714 273.113342,157.213364 
	C268.071167,160.850754 266.792725,165.766281 267.408356,171.605362 
	C267.668640,174.074020 267.510559,176.586777 267.536774,179.968201 
	C267.625092,193.881699 267.719269,206.906494 267.653839,220.379242 
	C267.494202,227.874512 267.494202,234.921829 267.494202,242.554489 
	C279.282379,237.646057 290.743744,237.930756 302.229218,238.110367 
	C310.527832,238.240143 318.333282,236.379242 325.032532,231.110687 
	C330.030640,226.633743 335.028748,222.156799 340.312225,217.424225 
	C340.411316,218.984085 340.544098,221.074036 340.762085,223.585236 
	C340.790985,229.353699 340.734711,234.700897 340.575409,240.873810 
	C340.472412,248.725891 340.472412,255.752274 340.472412,263.320557 
	C333.650909,262.555389 327.808228,261.900024 321.555206,261.126282 
	C310.762024,260.025543 300.379150,259.043182 289.552612,257.980103 
	C279.106506,257.984863 269.856293,260.053436 262.790955,267.882111 
M249.111282,203.074326 
	C249.125092,193.259369 249.143784,183.444397 249.151474,173.629440 
	C249.160843,161.658447 247.721222,159.799789 235.892242,156.954071 
	C233.649933,156.414658 231.282272,155.921356 229.011108,156.056519 
	C217.156586,156.762009 205.314545,157.677231 193.526398,158.515366 
	C193.526398,186.595139 193.526398,213.621170 193.526398,241.276825 
	C203.617767,240.209610 213.289307,239.186813 223.707092,238.480164 
	C232.026566,239.432983 240.346054,240.385788 248.940460,241.370087 
	C248.940460,229.488373 248.940460,216.743225 249.111282,203.074326 
z"/>
<path fill="#06A795" opacity="1.000000" stroke="none" 
	d="
M194.007736,261.613159 
	C205.359009,260.132751 216.718384,259.011383 228.537537,257.976257 
	C227.228546,269.925415 225.435425,281.780273 227.741226,293.798218 
	C228.034515,295.326782 227.781357,296.960205 227.781357,299.423492 
	C225.574493,298.505005 224.120438,297.899841 222.334763,297.146729 
	C213.836548,287.667145 205.586044,278.406586 197.572754,268.945068 
	C195.931244,267.006897 195.178345,264.316071 194.007736,261.613159 
z"/>
<path fill="#FCFEFE" opacity="1.000000" stroke="none" 
	d="
M340.103027,151.530060 
	C340.124603,156.021317 340.078918,160.048737 340.100403,164.534760 
	C340.123505,169.353455 340.079468,173.713593 340.101990,178.533905 
	C339.779053,183.566467 340.858887,188.515259 336.654053,192.492432 
	C332.749390,196.322083 328.989594,199.806671 324.786682,203.733093 
	C321.736908,206.921906 319.073883,209.618195 316.543121,212.433426 
	C314.800629,214.371765 313.432373,214.197830 311.643646,212.388885 
	C308.195007,208.901337 304.541229,205.616623 300.676300,202.074341 
	C291.848877,194.741943 285.982239,186.426163 288.105621,174.457504 
	C288.416962,172.702591 288.014648,170.821030 287.942566,168.998077 
	C288.015991,159.541138 288.125244,150.084320 288.154633,140.627243 
	C288.201904,125.417259 295.023010,118.018059 310.304321,117.240082 
	C314.896179,117.006302 319.538452,117.762917 324.578613,118.050064 
	C336.522583,121.747841 340.950165,129.933792 340.041931,141.623703 
	C339.798828,144.752487 340.025024,147.917740 340.103027,151.530060 
M326.789795,152.096512 
	C327.134216,150.651001 327.672943,149.220871 327.788818,147.757263 
	C328.240570,142.051010 324.988922,136.613327 319.767609,134.089066 
	C314.770813,131.673355 309.129364,132.505142 305.026642,136.262527 
	C300.785889,140.146332 299.092346,146.537735 301.267090,151.722641 
	C303.400299,156.808426 307.165192,160.171173 312.856049,160.646133 
	C319.122131,161.169098 323.668396,158.385498 326.789795,152.096512 
z"/>
<path fill="#0BA997" opacity="1.000000" stroke="none" 
	d="
M287.563660,169.004974 
	C288.014648,170.821030 288.416962,172.702591 288.105621,174.457504 
	C285.982239,186.426163 291.848877,194.741943 300.604065,202.412216 
	C299.748627,203.612457 298.729370,204.429489 297.579926,204.969223 
	C290.752319,208.175110 283.845917,211.217041 277.068237,214.523727 
	C273.866089,216.086014 270.891266,218.114197 267.813477,219.931274 
	C267.719269,206.906494 267.625092,193.881699 267.681274,180.407928 
	C269.040161,179.583969 271.016602,179.536346 271.337708,178.783035 
	C274.354034,171.707870 281.460602,171.514694 287.563660,169.004974 
z"/>
<path fill="#34CDBC" opacity="1.000000" stroke="none" 
	d="
M321.965546,261.244659 
	C327.808228,261.900024 333.650909,262.555389 340.472412,263.320557 
	C340.472412,255.752274 340.472412,248.725891 340.650757,241.334808 
	C343.433746,243.772903 347.082916,246.138489 348.469543,249.451126 
	C356.110657,267.705627 343.316559,286.157684 324.202911,286.725525 
	C319.062164,286.878265 313.826874,283.848328 308.350494,281.794067 
	C309.183685,279.902740 310.397034,278.561493 311.401855,277.078949 
	C314.961578,271.826935 318.450043,266.526642 321.965546,261.244659 
z"/>
<path fill="#1CB7A6" opacity="1.000000" stroke="none" 
	d="
M321.555206,261.126282 
	C318.450043,266.526642 314.961578,271.826935 311.401855,277.078949 
	C310.397034,278.561493 309.183685,279.902740 308.021973,281.652832 
	C304.749115,285.463837 301.520325,288.930817 298.144531,292.697693 
	C296.857086,293.910339 295.716614,294.823151 294.147278,295.546906 
	C286.534943,283.518555 285.904785,271.025299 289.996307,258.060822 
	C300.379150,259.043182 310.762024,260.025543 321.555206,261.126282 
z"/>
<path fill="#1AB2A0" opacity="1.000000" stroke="none" 
	d="
M267.653839,220.379242 
	C270.891266,218.114197 273.866089,216.086014 277.068237,214.523727 
	C283.845917,211.217041 290.752319,208.175110 297.579926,204.969223 
	C298.729370,204.429489 299.748627,203.612457 300.900269,202.585663 
	C304.541229,205.616623 308.195007,208.901337 311.643646,212.388885 
	C313.432373,214.197830 314.800629,214.371765 316.543121,212.433426 
	C319.073883,209.618195 321.736908,206.921906 324.651154,204.035446 
	C324.972229,204.364960 324.985748,204.833939 325.006775,205.654938 
	C325.011597,214.057175 325.008942,222.107422 325.019409,230.634186 
	C318.333282,236.379242 310.527832,238.240143 302.229218,238.110367 
	C290.743744,237.930756 279.282379,237.646057 267.494202,242.554489 
	C267.494202,234.921829 267.494202,227.874512 267.653839,220.379242 
z"/>
<path fill="#15B3A1" opacity="1.000000" stroke="none" 
	d="
M289.552612,257.980103 
	C285.904785,271.025299 286.534943,283.518555 293.862854,295.681915 
	C290.768707,300.136169 287.530090,304.266327 284.144440,308.697083 
	C281.200592,311.900238 278.403748,314.802826 275.304688,317.853058 
	C275.534454,313.831848 273.997803,310.476929 271.718658,306.964600 
	C264.989014,296.593536 262.266907,285.138336 263.829651,272.750458 
	C264.007751,271.338654 263.576355,269.850006 263.109253,268.139526 
	C269.856293,260.053436 279.106506,257.984863 289.552612,257.980103 
z"/>
<path fill="#C69700" opacity="1.000000" stroke="none" 
	d="
M337.011414,414.534180 
	C336.294769,414.980865 335.714905,415.106903 334.955231,415.471130 
	C326.449310,416.080811 322.827332,413.586853 320.871002,405.528961 
	C320.140594,402.520355 320.054840,399.308472 320.031403,396.186615 
	C320.000946,392.132568 320.364471,387.987976 325.093170,386.449188 
	C329.162170,385.125061 335.077942,387.575256 337.763947,391.380524 
	C342.169586,397.621918 341.903656,407.484222 337.011414,414.534180 
z"/>
<path fill="#CA9900" opacity="1.000000" stroke="none" 
	d="
M151.245422,413.883484 
	C137.876312,419.708099 124.419434,411.943787 124.003761,394.716248 
	C123.794853,386.057831 124.363258,377.732697 132.712830,371.988464 
	C148.494751,367.667206 159.881973,376.513977 160.011276,392.660431 
	C160.077133,400.882263 158.949509,408.522980 151.245422,413.883484 
z"/>
<path fill="#04A592" opacity="1.000000" stroke="none" 
	d="
M222.960831,238.164001 
	C213.289307,239.186813 203.617767,240.209610 193.526398,241.276825 
	C193.526398,213.621170 193.526398,186.595139 193.526398,158.515366 
	C205.314545,157.677231 217.156586,156.762009 229.011108,156.056519 
	C231.282272,155.921356 233.649933,156.414658 235.892242,156.954071 
	C247.721222,159.799789 249.160843,161.658447 249.151474,173.629440 
	C249.143784,183.444397 249.125092,193.259369 248.685516,203.573517 
	C235.964844,212.570557 229.616165,225.481064 222.960831,238.164001 
z"/>
<path fill="#0BA997" opacity="1.000000" stroke="none" 
	d="
M223.333954,238.322083 
	C229.616165,225.481064 235.964844,212.570557 248.600113,204.035400 
	C248.940460,216.743225 248.940460,229.488373 248.940460,241.370087 
	C240.346054,240.385788 232.026566,239.432983 223.333954,238.322083 
z"/>
<path fill="#0BA997" opacity="1.000000" stroke="none" 
	d="
M326.669952,152.463577 
	C323.668396,158.385498 319.122131,161.169098 312.856049,160.646133 
	C307.165192,160.171173 303.400299,156.808426 301.267090,151.722641 
	C299.092346,146.537735 300.785889,140.146332 305.026642,136.262527 
	C309.129364,132.505142 314.770813,131.673355 319.767609,134.089066 
	C324.988922,136.613327 328.240570,142.051010 327.788818,147.757263 
	C327.672943,149.220871 327.134216,150.651001 326.669952,152.463577 
z"/>
</svg>